<svg fill="none" height="426" viewBox="0 0 216 426" width="216" xmlns="http://www.w3.org/2000/svg"><path d="m403.537 117.791c-22.997-46.0224-61.874-82.1658-109.448-101.752-47.574-19.58613-100.63-21.2913-149.363-4.8004-48.7335 16.4909-89.8512 50.0633-115.7558 94.5134-25.90457 44.451-34.8451 96.775-25.16962 147.305 9.67552 50.53 37.31302 95.851 77.80592 127.588 40.4925 31.737 91.1045 47.745 142.4825 45.066 51.378-2.678 100.051-23.862 137.024-59.638 36.974-35.775 59.749-83.723 64.118-134.986l-117.037-9.974c-1.96 22.993-12.176 44.5-28.76 60.546-16.584 16.047-38.415 25.549-61.46 26.75s-45.746-5.979-63.909-20.214-30.559-34.563-34.899-57.228c-4.34-22.664-.33-46.134 11.29-66.072 11.619-19.937 30.062-34.996 51.921-42.393 21.858-7.396 45.656-6.632 66.994 2.154 21.339 8.785 38.777 24.996 49.092 45.639z" fill="#4a6cf7" opacity=".1"/></svg>