<svg height="555.86743" viewBox="0 0 708 555.86743" width="708" xmlns="http://www.w3.org/2000/svg"><g transform="translate(-246 -172.06628)"><path d="m890.46523 679.51478a211.72219 211.72219 0 0 1 -46.19649 37.27045c-.39154.24069-.7897.4667-1.18925.70031l-27.639-24.46263c.29035-.26957.61188-.57235.95806-.90494 20.59391-19.55497 122.83077-156.27974 129.64345-189.57446-.47014 2.77384 6.14723 111.55068-55.57677 176.97127z" fill="#f0f0f0"/><path d="m849.6017 721.5053c-.52265.12466-1.0544.24137-1.58764.34772l-20.7355-18.35251c.40524-.14119.87883-.30927 1.42046-.49568 8.89662-3.15026 35.39436-12.66026 61.76413-23.49189 28.33447-11.64369 56.53311-24.79986 62.59765-33.227-1.30094 1.95806-41.37434 61.3363-103.4591 75.21936z" fill="#f0f0f0"/><path d="m890.08181 317.64639h-2.95289v-80.89361a46.819 46.819 0 0 0 -46.819-46.81906h-171.38413a46.819 46.819 0 0 0 -46.81911 46.81891v443.7888a46.819 46.819 0 0 0 46.819 46.81906h171.38404a46.819 46.819 0 0 0 46.81915-46.81888v-305.31376h2.95294z" fill="#3f3d56"/><path d="m877.1627 237.07439v443.14277a34.95659 34.95659 0 0 1 -34.9693 34.95674h-172.20914a34.95435 34.95435 0 0 1 -34.957-34.95674v-443.14277a34.95435 34.95435 0 0 1 34.957-34.95674h20.89839a16.61888 16.61888 0 0 0 15.38341 22.87963h98.18146a16.60126 16.60126 0 0 0 15.384-22.87963h22.36188a34.95659 34.95659 0 0 1 34.9693 34.95674z" fill="#fff"/><path d="m823.59459 467.3551h-151.3667a10.0113 10.0113 0 0 1 -10-10v-4.97754a10.0113 10.0113 0 0 1 10-10h151.3667a10.0113 10.0113 0 0 1 10 10v4.97754a10.0113 10.0113 0 0 1 -10 10z" fill="#f0f0f0"/><path d="m823.59459 510.26233h-151.3667a10.0113 10.0113 0 0 1 -10-10v-4.97754a10.0113 10.0113 0 0 1 10-10h151.3667a10.0113 10.0113 0 0 1 10 10v4.97754a10.0113 10.0113 0 0 1 -10 10z" fill="#f0f0f0"/><path d="m831.16637 457.75891h-151.3667a10.512 10.512 0 0 1 -10.5-10.5v-4.97754a10.512 10.512 0 0 1 10.5-10.5h151.3667a10.512 10.512 0 0 1 10.5 10.5v4.97754a10.512 10.512 0 0 1 -10.5 10.5zm-151.3667-23.97754a8.50951 8.50951 0 0 0 -8.5 8.5v4.97754a8.50951 8.50951 0 0 0 8.5 8.5h151.3667a8.50951 8.50951 0 0 0 8.5-8.5v-4.97754a8.50951 8.50951 0 0 0 -8.5-8.5z" fill="#3f3d56"/><path d="m831.16637 500.66614h-151.3667a10.512 10.512 0 0 1 -10.5-10.5v-4.97754a10.512 10.512 0 0 1 10.5-10.5h151.3667a10.512 10.512 0 0 1 10.5 10.5v4.97754a10.512 10.512 0 0 1 -10.5 10.5zm-151.3667-23.97754a8.50951 8.50951 0 0 0 -8.5 8.5v4.97754a8.50951 8.50951 0 0 0 8.5 8.5h151.3667a8.50951 8.50951 0 0 0 8.5-8.5v-4.97754a8.50951 8.50951 0 0 0 -8.5-8.5z" fill="#3f3d56"/><path d="m877.1627 237.07439v96.38971a103.53895 103.53895 0 0 1 -129.88243-100.07465q0-4.24023.34076-8.39217h56.82649a16.60126 16.60126 0 0 0 15.384-22.87963h22.36188a34.95659 34.95659 0 0 1 34.9693 34.95674z" fill="#f0f0f0"/><path d="m722.04076 709.15425c0 2.03176-.0758 4.03834-.23971 6.01965h-51.81679a34.95435 34.95435 0 0 1 -34.957-34.95674v-47.3998a77.07339 77.07339 0 0 1 87.01347 76.33689z" fill="#4a6cf7"/><path d="m304.12133 625.985a6.00681 6.00681 0 0 0 7.911-3.0669l46.67932-105.79394a13.3793 13.3793 0 0 0 -17.0774-17.876h-.00012a13.19944 13.19944 0 0 0 -6.75012 5.78027 13.64886 13.64886 0 0 0 -.65442 1.293l-46.67932 105.794a5.99964 5.99964 0 0 0 3.06738 7.91162z" fill="#4a6cf7"/><path d="m356.79528 560.55725-46.17176-10.26074 11.428-30.23193a31.94972 31.94972 0 0 1 34.299-23.62793l.44483.04931z" fill="#2f2e41"/><g fill="#4a6cf7"><path d="m450.055 627.49817a7.02814 7.02814 0 0 1 -6.41186-4.17676l-46.67914-105.79394a14.38052 14.38052 0 0 1 25.60937-12.99707v-.00049a14.61775 14.61775 0 0 1 .70264 1.38818l46.6792 105.794a7.00007 7.00007 0 0 1 -3.57862 9.23l-13.96142 6.15966-.00708-.01562a6.94406 6.94406 0 0 1 -2.35309.41204z"/><path d="m385.48546 591.16907a6.00671 6.00671 0 0 0 -6 6v123.01416a6.00672 6.00672 0 0 0 6 6h14.75954a6.00672 6.00672 0 0 0 6-6v-123.01416a6.00671 6.00671 0 0 0 -6-6z"/><path d="m356.29308 591.16907a6.00671 6.00671 0 0 0 -6 6v123.01416a6.00672 6.00672 0 0 0 6 6h14.75976a6.00672 6.00672 0 0 0 6-6v-123.01416a6.00671 6.00671 0 0 0 -6-6z"/></g></g><circle cx="131.82814" cy="239.22404" fill="#4a6cf7" r="51"/><g fill="#2f2e41"><path d="m394.79994 432.69926c3.30591-.09179 7.42029-.20654 10.59-2.522a8.13272 8.13272 0 0 0 3.20008-6.07275 5.47082 5.47082 0 0 0 -1.86036-4.49315c-1.65551-1.39894-4.073-1.72707-6.67822-.96144l2.69922-19.72559-1.98144-.27148-3.17322 23.18997 1.65466-.75928c1.91834-.87988 4.55164-1.32764 6.188.05518a3.51513 3.51513 0 0 1 1.15271 2.8955 6.14689 6.14689 0 0 1 -2.38123 4.52784c-2.46667 1.80175-5.74621 2.03418-9.46582 2.13818z" transform="translate(-246 -172.06628)"/><path d="m166.54982 228.55925h10.77161v2h-10.77161z"/><path d="m132.54982 228.55925h10.77161v2h-10.77161z"/><path d="m428.36168 628.11938-18.356-134a6.00013 6.00013 0 0 0 -5.94482-5.18566h-13.85543a6.02466 6.02466 0 0 0 .08985-1v-5a6.00015 6.00015 0 0 0 -6-6h-12a6.00014 6.00014 0 0 0 -6 6v5a6.02466 6.02466 0 0 0 .08984 1h-13.85547a6.00049 6.00049 0 0 0 -5.94482 5.18566l-18.356 134a6 6 0 0 0 5.94434 6.81434h88.24414a6 6 0 0 0 5.94437-6.81434z" transform="translate(-246 -172.06628)"/><path d="m399.79528 560.55725v-64.07125l.44482-.04931a31.96115 31.96115 0 0 1 34.31543 23.68017l11.41138 30.17969z" transform="translate(-246 -172.06628)"/><path d="m375.25992 463.88179-35.27546-13.69192c-5.76827-2.23892-11.56878-4.40968-17.30651-6.72569a19.72637 19.72637 0 0 1 -6.66153-3.92617 13.09008 13.09008 0 0 1 -3.32111-6.42695c-1.22347-5.17132-1.00226-10.82516-.915-16.10249a122.69927 122.69927 0 0 1 1.42174-17.24065 83.28557 83.28557 0 0 1 10.65027-30.38043c9.89272-16.23155 26.93718-28.44363 46.5429-27.469 9.07668.4512 18.20557 3.70824 24.94937 9.914a15.75138 15.75138 0 0 0 2.35507 2.28248 3.26776 3.26776 0 0 0 1.87567.12592q1.23442-.07942 2.47088-.12124a51.04308 51.04308 0 0 1 8.56551.35928 27.12111 27.12111 0 0 1 14.13035 5.86736c3.37014 2.89908 6.11233 6.99171 6.39451 11.53986a13.65989 13.65989 0 0 1 -4.6143 11.15057c-4.20852 3.54694-10.2131 2.30024-15.26138 2.03278l-18.49376-.97979-9.37018-.49642c-1.92935-.10222-1.92373 2.89808 0 3l24.90494 1.31945c4.00221.212 8.127.73168 12.13244.49169a13.57368 13.57368 0 0 0 8.33317-3.35238 16.62754 16.62754 0 0 0 5.03664-15.60115c-1.284-6.13755-5.85183-11.21468-11.20665-14.23511-7.28613-4.1098-15.988-4.50357-24.14076-3.896l1.06066.43934c-9.22224-9.89816-23.34855-14.07733-36.61026-12.61482-14.00229 1.54417-26.45612 9.35584-35.40409 20.03753-9.97644 11.90941-15.413 26.75957-17.52653 42.02983a139.839 139.839 0 0 0 -1.082 24.87973 31.35039 31.35039 0 0 0 1.85228 10.75107 15.39035 15.39035 0 0 0 7.22512 7.74612 103.39756 103.39756 0 0 0 11.46784 4.71084l12.99624 5.04437 25.52829 9.90863 6.49811 2.5222c1.80087.699 2.581-2.2006.79752-2.89284z" transform="translate(-246 -172.06628)"/><path d="m319.79528 361.93372a15.5 15.5 0 1 1 15.5-15.5 15.51744 15.51744 0 0 1 -15.5 15.5zm0-28a12.5 12.5 0 1 0 12.5 12.5 12.51408 12.51408 0 0 0 -12.5-12.5z" transform="translate(-246 -172.06628)"/></g><path d="m528.17702 440.81546h42.23651v42.23651h-42.23651z" fill="#f0f0f0" transform="matrix(.79431093 .60751143 -.60751143 .79431093 147.61407 -410.75474)"/><path d="m389.29528 228.93372a33.94883 33.94883 0 0 1 27.27734 13.70214l19.58984-25.6137-58.77881-44.95588-44.95556 58.779 25.33349 19.37585a34.003 34.003 0 0 1 31.5337-21.28741z" fill="#f0f0f0" transform="translate(-246 -172.06628)"/><path d="m953 727.93372h-706a1 1 0 0 1 0-2h706a1 1 0 0 1 0 2z" fill="#3f3d56" transform="translate(-246 -172.06628)"/><path d="m780.68737 562.00305h-71.86207a10.0113 10.0113 0 0 1 -10-10v-4.97754a10.0113 10.0113 0 0 1 10-10h71.86207a10.0113 10.0113 0 0 1 10 10v4.97754a10.0113 10.0113 0 0 1 -10 10z" fill="#4a6cf7" transform="translate(-246 -172.06628)"/><path d="m788.25939 552.40735h-71.86231a10.512 10.512 0 0 1 -10.5-10.5v-4.97754a10.512 10.512 0 0 1 10.5-10.5h71.86231a10.512 10.512 0 0 1 10.5 10.5v4.97754a10.512 10.512 0 0 1 -10.5 10.5zm-71.86231-23.97754a8.50951 8.50951 0 0 0 -8.5 8.5v4.97754a8.50951 8.50951 0 0 0 8.5 8.5h71.86231a8.50951 8.50951 0 0 0 8.5-8.5v-4.97754a8.50951 8.50951 0 0 0 -8.5-8.5z" fill="#3f3d56" transform="translate(-246 -172.06628)"/></svg>