<svg fill="none" height="167" viewBox="0 0 239 167" width="239" xmlns="http://www.w3.org/2000/svg"><path d="m174.857 1.89736c4.336-1.396432 8.966-1.664515 13.513-1.400433 6.533.380117 13.321 2.012623 18.123 6.481993 3.025 2.81287 5.032 6.52998 7.469 9.87908 7.059 9.707 17.967 16.6531 22.729 27.6805 4.069 9.4269 2.54 21.2785-4.463 28.7648s-19.337 9.611-28.009 4.1653c-8.325-5.2256-12.003-15.6288-19.608-21.8667-5.434-4.4574-12.457-6.446-18.362-10.2552-6.043-3.8972-10.96-10.0231-12.071-17.1492-.924-5.9179 1.198-12.3478 5.789-16.241 4.491-3.80922 9.216-8.23458 14.89-10.05914z" fill="#dbf6ff" opacity=".4"/><path d="m200.764 167h-174.6058c-13.1822-10.111-22.3433-24.539-24.8197-41.021-1.027182-6.854-.441924-14.968 5.11205-19.073 8.54795-6.314 21.37185 1.644 31.02655-2.765 6.2189-2.841 9.2845-10.2234 9.3482-17.0895s-2.2454-13.4921-3.9733-20.1382c-1.7279-6.642-2.8666-13.8162-.5335-20.2702 2.333-6.454 9.2088-11.6876 15.8258-9.9751 5.6694 1.4685 9.2686 7.2422 14.6991 9.4349 5.6535 2.2847 12.2187.2041 17.2392-3.269s9.0138-8.2265 13.7074-12.1357c8.238-6.8621 19.115-11.0674 29.697-9.4669 10.579 1.6004 20.369 9.839 22.021 20.4623 1.35 8.6906-2.285 18.7337 3.014 25.7319 5.976 7.8944 18.473 5.6777 27.113 10.4712 7.031 3.9012 10.785 12.944 8.596 20.7144-2.238 7.9309-9.838 14.5889-8.6 22.7389.888 5.842 6.04 9.879 9.671 14.529 6.983 8.938 10.14 20.782 5.462 31.121z" fill="#dbf6ff" opacity=".4"/><path d="m180.045 20.895 8.639 22.0788 18.41-10.4432z" fill="#f2994a"/><path d="m180.045 20.895 16.98 17.3493 4.627-2.6248z" fill="#d9d9d9"/><path d="m201.652 35.6194-3.221 8.0065-1.406-5.3817z" fill="#d9d9d9"/><path d="m198.431 43.626-3.973-3.9252 2.568-1.4564z" fill="#f2994a"/><path d="m167.603 167h-110.924c-2.3768 0-4.3038-1.937-4.3038-4.325v-71.5145c0-2.3887 1.927-4.3253 4.3038-4.3253h110.924c2.377 0 4.304 1.9366 4.304 4.3253v71.5185c0 2.384-1.927 4.321-4.304 4.321z" fill="#101439"/><path d="m170.417 127.774c.463-1.963-.745-3.931-2.698-4.397-1.954-.465-3.913.749-4.376 2.712s.745 3.932 2.699 4.397c1.953.466 3.912-.749 4.375-2.712z" fill="#1c2363"/><path d="m54.9236 140.472c-.637 0-1.1506-.52-1.1506-1.157v-24.791c0-.64.5136-1.157 1.1506-1.157s1.1506.521 1.1506 1.157v24.791c0 .641-.5136 1.157-1.1506 1.157z" fill="#1c2363"/><path d="m161.846 89.7922h-104.1361v74.2468h104.1361z" fill="#dce8f4"/><path d="m161.846 89.7971h-104.1361v4.9896h104.1361z" fill="#a6afb8"/><path d="m60.736 92.4968h-1.3178v1.6845h1.3178z" fill="#fc6047"/><path d="m62.4517 91.3206h-1.3178v2.8568h1.3178z" fill="#fc6047"/><path d="m64.2598 90.5083h-1.3178v3.6691h1.3178z" fill="#fc6047"/><path d="m153.573 90.8127v.244c0 .1921-.155.3521-.35.3521h-.39c-.191 0-.351.1561-.351.3521v1.0644c0 .192.156.3521.351.3521h.39c.191 0 .35.156.35.3521v.2441c0 .192.155.3521.351.3521h5.426c.191 0 .35-.1561.35-.3521v-2.9529c0-.1921-.155-.3522-.35-.3522h-5.43c-.192-.008-.347.1521-.347.3442z" fill="#dce8f4"/><path d="m159.363 93.9337h-.968c-.072 0-.127-.06-.127-.1281v-3.0289c0-.072.055-.128.127-.128h.968c.071 0 .127.06.127.128v3.0289c0 .0681-.056.1281-.127.1281z" fill="#b7fc47"/><path d="m157.861 93.9337h-.967c-.072 0-.128-.06-.128-.1281v-3.0289c0-.072.06-.128.128-.128h.967c.072 0 .127.06.127.128v3.0289c0 .0681-.055.1281-.127.1281z" fill="#b7fc47"/><path d="m156.36 93.9337h-.967c-.072 0-.128-.06-.128-.1281v-3.0289c0-.072.06-.128.128-.128h.967c.072 0 .127.06.127.128v3.0289c0 .0681-.055.1281-.127.1281z" fill="#b7fc47"/><path d="m150.853 92.289c0 .7762-.625 1.4044-1.397 1.4044s-1.397-.6282-1.397-1.4044c0-.7763.625-1.4045 1.397-1.4045.768 0 1.397.6282 1.397 1.4045z" fill="#dce8f4"/><path d="m155.261 100.387h-90.9654v57.93h90.9654z" fill="#c3ced9"/><path d="m155.261 100.387h-90.9654v4.994h90.9654z" fill="#a7b1ba"/><g fill="#e0edfa"><path d="m153.421 107.974h-59.5526v2.376h59.5526z"/><path d="m126.734 112.495h-32.8656v2.377h32.8656z"/><path d="m111.553 117.021h-17.6846v2.376h17.6846z"/><path d="m153.421 124.863h-59.5526v2.377h59.5526z"/><path d="m126.734 129.384h-32.8656v2.377h32.8656z"/><path d="m111.553 133.909h-17.6846v2.377h17.6846z"/><path d="m153.421 141.356h-59.5526v2.377h59.5526z"/><path d="m126.734 145.877h-32.8656v2.377h32.8656z"/><path d="m111.553 150.403h-17.6846v2.376h17.6846z"/><path d="m90.9582 107.974h-23.0958v13.068h23.0958z"/></g><path d="m67.8624 121.038 11.5499-6.53 11.5459 6.53z" fill="#cedae6"/><path d="m90.9582 107.974-11.5459 6.534-11.5499-6.534z" fill="#cedae6"/><path d="m90.9582 124.787h-23.0958v13.068h23.0958z" fill="#e0edfa"/><path d="m67.8624 137.851 11.5499-6.53 11.5459 6.53z" fill="#cedae6"/><path d="m90.9582 124.787-11.5459 6.534-11.5499-6.534z" fill="#cedae6"/><path d="m90.9582 141.6h-23.0958v13.068h23.0958z" fill="#e0edfa"/><path d="m67.8624 154.664 11.5499-6.53 11.5459 6.53z" fill="#cedae6"/><path d="m90.9582 141.6-11.5459 6.534-11.5499-6.534z" fill="#cedae6"/><g fill="#fff" opacity=".44"><path d="m94.9235 89.7922-37.2136 37.4038v-32.6863l4.698-4.7175z" opacity=".44"/><path d="m117.506 89.7922-59.7961 60.0948v-16.717l43.1621-43.3778z" opacity=".44"/></g><g fill="#fff" opacity=".44"><path d="m161.846 97.8745v32.6785l-33.323 33.486h-32.5121z" opacity=".44"/><path d="m161.847 136.53v16.717l-10.742 10.792h-16.63z" opacity=".44"/></g><path d="m75.2803 87.7597 30.8757-24.0434c1.95-1.5205 4.678-1.5205 6.629 0l30.875 24.0434v40.2923h-68.3797z" fill="#ee8f23"/><path d="m135.749 66.405h-52.5572v58.09h52.5572z" fill="#fafafa"/><path d="m132.585 69.9021h-46.2316v1.7726h46.2316z" fill="#dbdbdb"/><path d="m125.641 73.4592h-39.2876v1.7726h39.2876z" fill="#dbdbdb"/><path d="m119.267 77.0203h-32.9136v1.7725h32.9136z" fill="#dbdbdb"/><path d="m119.267 83.8542h-32.9136v1.7726h32.9136z" fill="#dbdbdb"/><path d="m110.767 87.2715h-24.4136v1.7725h24.4136z" fill="#dbdbdb"/><path d="m133.882 94.4297h-24.413v1.7725h24.413z" fill="#dbdbdb"/><path d="m133.887 97.9187h-19.859v1.7725h19.859z" fill="#dbdbdb"/><path d="m109.468 107.918-34.1877-20.1343v40.2683z" fill="#ffac42"/><path d="m109.469 107.918 34.191-20.1343v40.2683z" fill="#ffac42"/><path d="m106.156 104.009-30.8757 24.043h68.3797l-30.875-24.043c-1.951-1.517-4.679-1.517-6.629 0z" fill="#ffbe6e"/><path d="m148.813 89.2242c.79-2.8595-.875-5.8216-3.721-6.616-2.845-.7945-5.792.8795-6.583 3.7389-.79 2.8595.875 5.8216 3.721 6.6161 2.845.7945 5.792-.8795 6.583-3.739z" fill="#fc6d5f"/><path d="m142.453 85.0588v5.1816h-1.457v-4.0492h-.96v-1.1324z" fill="#fff"/><path d="m146.761 87.3915c.347.2961.518.6922.518 1.1843 0 .3201-.084.6162-.247.8843s-.414.4841-.752.6442c-.335.16-.753.2401-1.251.2401-.362 0-.724-.044-1.078-.1321-.355-.088-.661-.216-.916-.3761l.521-1.1043c.207.14.434.244.681.3201.247.072.498.112.749.112s.45-.048.601-.144c.151-.0961.223-.2321.223-.4042 0-.172-.072-.3041-.219-.3921s-.406-.132-.78-.132h-1.402l.259-3.029h3.284v1.1324h-2.078l-.067.7562h.346c.729-.004 1.262.1441 1.608.4402z" fill="#fff"/><path d="m55.5195 40.025c.8997.0361 1.704.2881 2.4166.7563.7127.4681 1.2621 1.1083 1.6483 1.9206.2827.6002.434 1.1603.4459 1.6805.0159.5201-.0915.9683-.3105 1.3484-.223.3801-.5455.6722-.9715.8723-.3503.168-.6887.24-1.0072.212-.3225-.024-.6092-.152-.864-.3841-.0518.7362-.4499 1.2804-1.1984 1.6405-.3902.1881-.8042.2561-1.2422.2081-.4379-.048-.848-.2121-1.2302-.4962s-.6888-.6722-.9237-1.1643c-.2349-.4922-.3384-.9763-.3225-1.4525.0199-.4761.1474-.8962.3902-1.2644.2389-.3681.5574-.6482.9555-.8362.5853-.2801 1.1347-.3081 1.6523-.092l-.2309-.4882 1.6204-.7762 1.4412 3.0489c.0996.2121.215.3481.3384.4041.1235.056.2509.052.3862-.012.4181-.2.3822-.8162-.1075-1.8485-.2986-.6322-.7126-1.1244-1.2421-1.4765-.5296-.3521-1.1268-.5362-1.7956-.5562-.6689-.02-1.3537.1401-2.0544.4722-.6967.3321-1.2422.7762-1.6403 1.3364-.3981.5562-.6211 1.1723-.6689 1.8446-.0478.6722.0836 1.3364.3982 1.9966.3185.6722.7484 1.2043 1.2939 1.6005.5454.3921 1.1546.6121 1.8274.6522.6729.04 1.3577-.1041 2.0544-.4362.7087-.3401 1.2979-.8002 1.7717-1.3844l.8719.8923c-.2269.2881-.5335.5762-.9117.8642-.3782.2881-.7804.5322-1.2064.7363-.9595.4601-1.903.6642-2.8227.6162-.9237-.0481-1.7478-.3281-2.4804-.8363s-1.3059-1.1964-1.716-2.0686c-.41-.8643-.5773-1.7446-.5016-2.6328.0756-.8883.3862-1.7126.9356-2.4648s1.3099-1.3604 2.2773-1.8246c.9118-.4401 1.8235-.6442 2.7233-.6082zm.5096 5.8458c.0876-.288.0438-.6121-.1274-.9803-.1712-.3601-.3942-.5961-.6689-.7082-.2787-.112-.5614-.1-.852.04-.2906.1401-.4778.3521-.5654.6362-.0836.2841-.0398.6082.1275.9683.1712.3601.3941.6002.6688.7163.2747.116.5574.108.852-.0321.2867-.14.4778-.3521.5654-.6402z" fill="#bcdfeb"/><path d="m146.239 42.1498-.514 1.6685 1.473.2721-.278 1.5244-1.66-.3081-.546 1.7206-1.6-.2961.545-1.7206-1.449-.268-.546 1.7205-1.6-.2961.545-1.7205-1.485-.2761.279-1.5245 1.672.3081.514-1.6685-1.485-.2761.278-1.5245 1.673.3081.545-1.7205 1.6.2961-.545 1.7205 1.449.2681.546-1.7205 1.6.2961-.545 1.7205 1.485.2761-.279 1.5245zm-1.601-.2961-1.449-.2681-.513 1.6685 1.449.2681z" fill="#bcdfeb"/><path d="m69.4747 145.117h-19.8231c-6.0158 0-10.8929-4.901-10.8929-10.947s4.8771-10.947 10.8929-10.947h8.9302c6.0158 0 10.8929 4.901 10.8929 10.947z" fill="#ffbe6e"/><path d="m54.1141 125.892c-4.5427 0-8.2374 3.713-8.2374 8.278 0 4.566 3.6947 8.279 8.2374 8.279s8.2374-3.713 8.2374-8.279c0-4.565-3.6947-8.278-8.2374-8.278zm-7.1704 8.278c0-.556.0677-1.092.1871-1.612.3783-.172 1.067-.456 2.0385-.713-.219 1.245-.3026 2.641-.1035 4.114-.653-.172-1.3258-.38-2.0226-.624-.0597-.381-.0995-.769-.0995-1.165zm3.3125-2.569c1.8155-.348 4.2879-.508 7.2779.052.2866 1.429.426 3.081.1712 4.774-1.8991.332-4.4631.44-7.5486-.212-.3026-1.677-.1872-3.257.0995-4.614zm8.3927.292c.7922.189 1.6164.429 2.4684.729.1075.5.1712 1.016.1712 1.548 0 .416-.0438.82-.1115 1.217-.3822.184-1.1944.524-2.3769.812.1792-1.517.0757-2.989-.1512-4.306zm2.0742-.528c-.7962-.256-1.5686-.46-2.3131-.624-.2907-1.204-.6569-2.221-.9595-2.945 1.4611.772 2.6237 2.033 3.2726 3.569zm-4.6979-4.137c.1791.352.7803 1.585 1.2421 3.289-2.6834-.452-4.9528-.356-6.7205-.068.4738-1.588 1.1108-2.725 1.3577-3.133.6967-.228 1.4412-.356 2.2136-.356.6609 0 1.2979.1 1.9071.268zm-5.6854.824c-.3066.684-.649 1.577-.9157 2.617-.7366.172-1.3537.364-1.8434.544.5893-1.308 1.5527-2.409 2.7591-3.161zm-2.982 8.515c.6569.216 1.2939.392 1.915.544.2588 1.096.6848 2.221 1.3377 3.345-1.5009-.852-2.6675-2.233-3.2527-3.889zm4.9886 4.581c-.9516-1.264-1.5607-2.544-1.923-3.785 1.5209.292 2.9223.416 4.1764.416 1.063 0 2.0226-.084 2.8746-.212-.3146 1.225-.86 2.453-1.72 3.617-.5255.124-1.0749.196-1.6363.196-.6131 0-1.2024-.088-1.7717-.232zm5.0722-.584c.5853-1.056.9715-2.137 1.1984-3.209.9157-.2 1.6602-.44 2.2096-.652-.629 1.668-1.8513 3.041-3.408 3.861z" fill="#fafafa"/><path d="m147.453 158.63h19.823c6.016 0 10.893-4.902 10.893-10.948s-4.877-10.947-10.893-10.947h-8.93c-6.016 0-10.893 4.901-10.893 10.947z" fill="#ffbe6e"/><path d="m170.967 144.537c0-3.097-4.902-5.758-8.158-3.085-3.257-2.673-8.158-.012-8.158 3.085 0 0-1.055 6.07 8.158 10.475 9.209-4.401 8.158-10.475 8.158-10.475z" stroke="#fafafa" stroke-linejoin="round" stroke-miterlimit="10" stroke-width="3.8114"/><path d="m140.947 14.0693c-.127-.0481-.251-.0881-.378-.1241-.036-.124-.076-.2521-.123-.3761-.203-.5041-.47-1.0083-1.004-1.5125-.533.5042-.8 1.0084-1.003 1.5125-.048.128-.088.2521-.123.3801-.128.036-.251.076-.379.1241-.501.204-1.003.4721-1.505 1.0083.502.5361 1.004.8042 1.505 1.0083.124.048.251.088.375.124.035.1281.075.2521.123.3801.203.5042.47 1.0083 1.007 1.5125.538-.5042.805-1.0083 1.008-1.5125.047-.124.087-.252.123-.3761.123-.036.251-.076.374-.124.502-.2041 1.004-.4722 1.505-1.0123-.501-.5402-1.003-.8083-1.505-1.0123z" fill="#bcdfeb"/><path d="m5.44227 98.7311c-.1274-.048-.25082-.088-.37823-.124-.03583-.1241-.07564-.2521-.12342-.3761-.20305-.5042-.4698-1.0083-1.0033-1.5125-.5335.5042-.80025 1.0083-1.00329 1.5125-.04778.128-.08759.252-.12343.3801-.1274.036-.25082.076-.37822.124-.50165.2041-1.0033.4722-1.504951 1.0083.501651.5366 1.003301.8046 1.504951 1.0086.12342.048.25082.088.37424.124.03584.128.07565.252.12342.38.20305.504.4698 1.008 1.00728 1.512.53749-.504.80424-1.008 1.00728-1.512.04778-.124.08759-.252.12343-.376.12342-.036.25082-.076.37424-.124.50165-.204 1.0033-.472 1.50495-1.0126-.50165-.5401-1.0033-.8082-1.50495-1.0123z" fill="#bcdfeb"/><path d="m151.331 74.2196c-.128-.048-.251-.088-.379-.124-.035-.124-.075-.2521-.123-.3761-.203-.5042-.47-1.0083-1.003-1.5125-.534.5042-.801 1.0083-1.004 1.5125-.047.128-.087.2521-.123.3801-.127.036-.251.076-.378.124-.502.2041-1.004.4722-1.505 1.0084.501.5361 1.003.8042 1.505 1.0083.123.048.251.088.374.124.036.128.076.2521.123.3801.203.5042.47 1.0083 1.008 1.5125.537-.5042.804-1.0083 1.007-1.5125.048-.124.088-.2521.123-.3761.124-.036.251-.076.375-.124.501-.2041 1.003-.4722 1.505-1.0123-.502-.5402-1.004-.8083-1.505-1.0124z" fill="#bcdfeb"/><path d="m203.734 21.9076c-.064-.024-.128-.044-.192-.064-.015-.0641-.035-.1241-.059-.1881-.104-.2521-.235-.5042-.502-.7602-.267.252-.402.5041-.502.7602-.023.064-.043.128-.063.1921-.064.016-.128.04-.191.064-.251.104-.502.236-.757.5041.251.2681.502.4042.757.5042.063.024.123.044.187.06.016.064.04.128.063.1921.1.252.235.5041.506.7602.271-.2521.402-.5042.506-.7602.024-.0641.043-.1281.059-.1881.064-.016.128-.036.188-.06.25-.1.501-.2361.756-.5082-.251-.2721-.506-.4081-.756-.5081z" fill="#dbf6ff"/><path d="m219.244 66.9535c-.063-.024-.127-.044-.191-.064-.016-.0641-.035-.1241-.059-.1881-.104-.2521-.235-.5042-.502-.7602-.267.252-.402.5041-.502.7602-.024.064-.043.128-.063.1921-.064.016-.128.04-.191.064-.251.104-.502.2361-.757.5041.251.2681.502.4042.757.5042.063.024.123.044.187.06.016.064.035.1281.063.1921.1.252.235.5041.506.7602.271-.2521.402-.5042.506-.7602.023-.064.043-.1281.059-.1881.064-.016.128-.036.187-.06.251-.1.502-.2361.757-.5082-.255-.272-.506-.4081-.757-.5081z" fill="#dbf6ff"/><path d="m218.651 65.8971c-.063-.024-.127-.044-.191-.064-.016-.0641-.036-.1241-.06-.1881-.103-.2521-.234-.5042-.501-.7602-.267.252-.402.5041-.502.7602-.024.064-.044.128-.064.1921-.063.016-.127.04-.191.064-.25.104-.501.2361-.756.5041.251.2681.502.4042.756.5042.064.024.124.044.187.06.016.064.04.128.064.1921.1.252.235.5041.506.7602.27-.2521.402-.5042.505-.7602.024-.0641.044-.1281.06-.1881.064-.016.128-.036.187-.06.251-.1.502-.2361.757-.5082-.255-.272-.506-.4081-.757-.5081z" fill="#dbf6ff"/><path d="m36.8473 79.6615c-.0637-.024-.1274-.044-.1911-.064-.0159-.0641-.0358-.1241-.0597-.1881-.1035-.2521-.2349-.5042-.5017-.7602-.2667.252-.4021.5041-.5016.7602-.0239.064-.0438.128-.0637.1921-.0637.016-.1274.04-.1911.064-.2509.104-.5017.2361-.7565.5041.2508.2681.5017.4042.7565.5042.0637.024.1234.044.1871.06.0159.064.0398.128.0637.1921.0995.252.2349.5041.5056.7602.2708-.2521.4021-.5042.5057-.7602.0238-.0641.0437-.1241.0597-.1881.0637-.016.1274-.036.1871-.06.2508-.1.5016-.2361.7564-.5082-.2548-.272-.5056-.4081-.7564-.5081z" fill="#bcdfeb"/><path d="m9.16468 159.646c-.0637-.024-.12741-.044-.19111-.064-.01592-.064-.03583-.124-.05972-.188-.10351-.252-.2349-.504-.50165-.76-.26675.252-.40211.504-.50165.76-.02388.064-.04379.128-.0637.192-.0637.016-.1274.04-.1911.064-.25083.104-.50165.236-.75646.504.25083.268.50165.404.75646.504.0637.024.12342.044.18712.06.01593.064.03981.128.0637.192.09954.252.2349.504.50563.76.27073-.252.40212-.504.50563-.76.02389-.064.0438-.128.05972-.188.0637-.016.12741-.036.18713-.06.25082-.1.50165-.236.75645-.508-.25082-.272-.50165-.408-.75645-.508z" fill="#bcdfeb"/><path d="m116.291 39.513c-.064-.024-.128-.044-.191-.064-.016-.064-.036-.124-.06-.188-.104-.2521-.235-.5042-.502-.7603-.267.2521-.402.5042-.501.7603-.024.064-.044.128-.064.192-.064.016-.128.04-.191.064-.251.1041-.502.2361-.757.5042.251.2681.502.4041.757.5042.063.024.123.044.187.06.016.064.04.128.064.192.099.2521.234.5042.505.7603.271-.2521.402-.5042.506-.7603.024-.064.044-.124.06-.188.063-.016.127-.036.187-.06.251-.1001.501-.2361.756-.5082-.255-.2681-.505-.4041-.756-.5082z" fill="#bcdfeb"/><path d="m43.1734 13.7611c-.0637-.024-.1274-.044-.1911-.064-.0159-.0641-.0358-.1241-.0597-.1881-.1035-.2521-.2349-.5041-.5016-.7602-.2668.2521-.4022.5041-.5017.7602-.0239.064-.0438.1281-.0637.1921-.0637.016-.1274.04-.1911.064-.2508.104-.5016.2361-.7564.5041.2508.2681.5016.4042.7564.5042.0637.024.1234.044.1871.06.016.064.0398.1281.0637.1921.0996.2521.2349.5041.5057.7602.2707-.2521.4021-.5041.5056-.7602.0239-.064.0438-.1281.0597-.1881.0637-.016.1274-.036.1871-.06.2509-.1.5017-.2361.7565-.5082-.2548-.272-.5056-.4041-.7565-.5081z" fill="#bcdfeb"/><path d="m199.422 81.9781c-.064-.024-.128-.044-.191-.064-.016-.064-.036-.124-.06-.188-.104-.2521-.235-.5042-.502-.7603-.266.2521-.402.5042-.501.7603-.024.064-.044.128-.064.192-.064.016-.127.04-.191.064-.251.1041-.502.2361-.757.5042.251.2681.502.4041.757.5041.064.0241.123.0441.187.0601.016.064.04.128.064.192.099.2521.235.5042.505.7603.271-.2521.402-.5042.506-.7603.024-.064.044-.128.06-.188.063-.016.127-.0361.187-.0601.251-.1.501-.236.756-.5081-.255-.2721-.505-.4041-.756-.5082z" fill="#bcdfeb"/><path d="m124.707 55.482c-.064-.024-.128-.044-.191-.064-.016-.064-.036-.124-.06-.188-.104-.2521-.235-.5042-.502-.7603-.266.2521-.402.5042-.501.7603-.024.064-.044.128-.064.192-.064.016-.127.04-.191.064-.251.1041-.502.2361-.757.5042.251.2681.502.4041.757.5041.064.0241.123.0441.187.0601.016.064.04.128.064.192.099.2521.235.5042.505.7603.271-.2521.402-.5042.506-.7603.024-.064.044-.128.06-.188.063-.016.127-.036.187-.0601.251-.1.501-.236.756-.5081-.251-.2721-.505-.4081-.756-.5082z" fill="#dbf6ff"/><path d="m96.2447 25.4566c-.1115-.044-.2229-.08-.3344-.108-.0319-.112-.0677-.2201-.1075-.3321-.1792-.4441-.4141-.8883-.8839-1.3324-.4698.4441-.7047.8883-.8838 1.3324-.0438.112-.0797.2241-.1075.3321-.1115.032-.223.068-.3305.108-.4419.1801-.8838.4162-1.3258.8883.442.4721.8839.7082 1.3258.8883.1115.04.219.076.3305.108.0318.112.0677.2241.1075.3361.1791.4441.414.8883.8878 1.3324.4738-.4441.7087-.8883.8879-1.3324.0398-.112.0756-.2201.1075-.3321.1114-.032.2189-.068.3304-.108.4419-.1801.8839-.4162 1.3258-.8923-.4459-.4721-.8878-.7082-1.3298-.8883z" fill="#bcdfeb"/><path d="m28.6533 57.7625c-.1115-.044-.2229-.08-.3344-.108-.0319-.112-.0677-.2201-.1075-.3321-.1792-.4441-.4141-.8883-.8839-1.3324-.4698.4441-.7047.8883-.8838 1.3324-.0438.112-.0797.2241-.1075.3321-.1115.032-.223.068-.3305.108-.4419.1801-.8838.4162-1.3258.8883.442.4722.8839.7082 1.3258.8883.1115.044.219.08.3305.108.0318.1121.0677.2241.1075.3361.1791.4442.414.8883.8878 1.3324.4738-.4441.7087-.8882.8878-1.3324.0399-.112.0757-.22.1075-.3321.1115-.032.219-.068.3305-.108.4419-.1801.8839-.4161 1.3258-.8923-.4459-.4721-.8879-.7082-1.3298-.8883z" fill="#bcdfeb"/><path d="m171.512 47.0152c-.112-.044-.223-.08-.335-.108-.032-.112-.067-.2201-.107-.3321-.179-.4442-.414-.8883-.884-1.3324-.47.4441-.705.8882-.884 1.3324-.044.112-.08.2241-.107.3321-.112.032-.223.068-.331.108-.442.1801-.884.4161-1.326.8883.442.4721.884.7082 1.326.8883.112.04.219.076.331.108.031.112.067.2241.107.3361.179.4441.414.8883.888 1.3324.474-.4441.709-.8883.888-1.3324.04-.112.075-.2201.107-.3321.112-.032.219-.068.331-.108.442-.1801.884-.4162 1.325-.8923-.449-.4722-.891-.7082-1.329-.8883z" fill="#dbf6ff"/><path d="m237.674 32.0667c-.112-.044-.223-.08-.335-.108-.032-.112-.067-.2201-.107-.3321-.179-.4441-.414-.8883-.884-1.3324-.47.4441-.705.8883-.884 1.3324-.044.112-.08.2241-.107.3321-.112.032-.223.068-.331.108-.442.1801-.884.4162-1.326.8883.442.4722.884.7082 1.326.8883.112.044.219.076.331.108.031.1121.067.2241.107.3361.179.4442.414.8883.888 1.3324.474-.4441.709-.8882.888-1.3324.04-.112.075-.22.107-.3321.112-.032.219-.068.331-.108.442-.1801.884-.4161 1.325-.8923-.445-.4721-.887-.7082-1.329-.8883z" fill="#dbf6ff"/><path d="m168.255 11.5284c-.112-.044-.223-.08-.335-.108-.031-.1121-.067-.2201-.107-.3321-.179-.4442-.414-.8883-.884-1.33244-.47.44414-.705.88824-.884 1.33244-.044.112-.079.224-.107.3321-.112.032-.223.068-.331.108-.442.1801-.884.4161-1.326.8883.442.4721.884.7082 1.326.8882.112.0441.219.0761.331.1081.032.112.067.2241.107.3361.179.4441.414.8883.888 1.3324.474-.4441.709-.8883.888-1.3324.04-.112.076-.2201.107-.3321.112-.032.219-.068.331-.108.442-.1801.884-.4162 1.326-.8923-.446-.4722-.888-.7082-1.33-.8883z" fill="#dbf6ff"/></svg>