<svg width="239" height="167" viewBox="0 0 239 167" fill="none" xmlns="http://www.w3.org/2000/svg">
<path opacity="0.4" d="M174.857 1.89736C179.193 0.500928 183.823 0.232845 188.37 0.496927C194.903 0.877044 201.691 2.50955 206.493 6.97892C209.518 9.79179 211.525 13.5089 213.962 16.858C221.021 26.565 231.929 33.5111 236.691 44.5385C240.76 53.9654 239.231 65.817 232.228 73.3033C225.225 80.7896 212.891 82.9143 204.219 77.4686C195.894 72.243 192.216 61.8398 184.611 55.6019C179.177 51.1445 172.154 49.1559 166.249 45.3467C160.206 41.4495 155.289 35.3236 154.178 28.1975C153.254 22.2796 155.376 15.8497 159.967 11.9565C164.458 8.14728 169.183 3.72192 174.857 1.89736Z" fill="#DBF6FF"/>
<path opacity="0.4" d="M200.764 167H26.1582C12.976 156.889 3.8149 142.461 1.3385 125.979C0.311318 119.125 0.896576 111.011 6.45055 106.906C14.9985 100.592 27.8224 108.55 37.4771 104.141C43.696 101.3 46.7616 93.9176 46.8253 87.0515C46.889 80.1854 44.5799 73.5594 42.852 66.9133C41.1241 60.2713 39.9854 53.0971 42.3185 46.6431C44.6515 40.1891 51.5273 34.9555 58.1443 36.668C63.8137 38.1365 67.4129 43.9102 72.8434 46.1029C78.4969 48.3876 85.0621 46.307 90.0826 42.8339C95.1031 39.3608 99.0964 34.6074 103.79 30.6982C112.028 23.8361 122.905 19.6308 133.487 21.2313C144.066 22.8317 153.856 31.0703 155.508 41.6936C156.858 50.3842 153.223 60.4273 158.522 67.4255C164.498 75.3199 176.995 73.1032 185.635 77.8967C192.666 81.7979 196.42 90.8407 194.231 98.6111C191.993 106.542 184.393 113.2 185.631 121.35C186.519 127.192 191.671 131.229 195.302 135.879C202.285 144.817 205.442 156.661 200.764 167Z" fill="#DBF6FF"/>
<path d="M180.045 20.895L188.684 42.9738L207.094 32.5306L180.045 20.895Z" fill="#F2994A"/>
<path d="M180.045 20.895L197.025 38.2443L201.652 35.6195L180.045 20.895Z" fill="#D9D9D9"/>
<path d="M201.652 35.6194L198.431 43.6259L197.025 38.2442L201.652 35.6194Z" fill="#D9D9D9"/>
<path d="M198.431 43.626L194.458 39.7008L197.026 38.2444L198.431 43.626Z" fill="#F2994A"/>
<path d="M167.603 167H56.679C54.3022 167 52.3752 165.063 52.3752 162.675V91.1605C52.3752 88.7718 54.3022 86.8352 56.679 86.8352H167.603C169.98 86.8352 171.907 88.7718 171.907 91.1605V162.679C171.907 165.063 169.98 167 167.603 167Z" fill="#101439"/>
<path d="M170.417 127.774C170.88 125.811 169.672 123.843 167.719 123.377C165.765 122.912 163.806 124.126 163.343 126.089C162.88 128.052 164.088 130.021 166.042 130.486C167.995 130.952 169.954 129.737 170.417 127.774Z" fill="#1C2363"/>
<path d="M54.9236 140.472C54.2866 140.472 53.773 139.952 53.773 139.315V114.524C53.773 113.884 54.2866 113.367 54.9236 113.367C55.5606 113.367 56.0742 113.888 56.0742 114.524V139.315C56.0742 139.956 55.5606 140.472 54.9236 140.472Z" fill="#1C2363"/>
<path d="M161.846 89.7922H57.7099V164.039H161.846V89.7922Z" fill="#DCE8F4"/>
<path d="M161.846 89.7971H57.7099V94.7867H161.846V89.7971Z" fill="#A6AFB8"/>
<path d="M60.736 92.4968H59.4182V94.1813H60.736V92.4968Z" fill="#FC6047"/>
<path d="M62.4517 91.3206H61.1339V94.1774H62.4517V91.3206Z" fill="#FC6047"/>
<path d="M64.2598 90.5083H62.942V94.1774H64.2598V90.5083Z" fill="#FC6047"/>
<path d="M153.573 90.8127V91.0567C153.573 91.2488 153.418 91.4088 153.223 91.4088H152.833C152.642 91.4088 152.482 91.5649 152.482 91.7609V92.8253C152.482 93.0173 152.638 93.1774 152.833 93.1774H153.223C153.414 93.1774 153.573 93.3334 153.573 93.5295V93.7736C153.573 93.9656 153.728 94.1257 153.924 94.1257H159.35C159.541 94.1257 159.7 93.9696 159.7 93.7736V90.8207C159.7 90.6286 159.545 90.4685 159.35 90.4685H153.92C153.728 90.4605 153.573 90.6206 153.573 90.8127Z" fill="#DCE8F4"/>
<path d="M159.363 93.9337H158.395C158.323 93.9337 158.268 93.8737 158.268 93.8056V90.7767C158.268 90.7047 158.323 90.6487 158.395 90.6487H159.363C159.434 90.6487 159.49 90.7087 159.49 90.7767V93.8056C159.49 93.8737 159.434 93.9337 159.363 93.9337Z" fill="#B7FC47"/>
<path d="M157.861 93.9337H156.894C156.822 93.9337 156.766 93.8737 156.766 93.8056V90.7767C156.766 90.7047 156.826 90.6487 156.894 90.6487H157.861C157.933 90.6487 157.988 90.7087 157.988 90.7767V93.8056C157.988 93.8737 157.933 93.9337 157.861 93.9337Z" fill="#B7FC47"/>
<path d="M156.36 93.9337H155.393C155.321 93.9337 155.265 93.8737 155.265 93.8056V90.7767C155.265 90.7047 155.325 90.6487 155.393 90.6487H156.36C156.432 90.6487 156.487 90.7087 156.487 90.7767V93.8056C156.487 93.8737 156.432 93.9337 156.36 93.9337Z" fill="#B7FC47"/>
<path d="M150.853 92.289C150.853 93.0652 150.228 93.6934 149.456 93.6934C148.684 93.6934 148.059 93.0652 148.059 92.289C148.059 91.5127 148.684 90.8845 149.456 90.8845C150.224 90.8845 150.853 91.5127 150.853 92.289Z" fill="#DCE8F4"/>
<path d="M155.261 100.387H64.2956V158.317H155.261V100.387Z" fill="#C3CED9"/>
<path d="M155.261 100.387H64.2956V105.381H155.261V100.387Z" fill="#A7B1BA"/>
<path d="M153.421 107.974H93.8684V110.35H153.421V107.974Z" fill="#E0EDFA"/>
<path d="M126.734 112.495H93.8684V114.872H126.734V112.495Z" fill="#E0EDFA"/>
<path d="M111.553 117.021H93.8684V119.397H111.553V117.021Z" fill="#E0EDFA"/>
<path d="M153.421 124.863H93.8684V127.24H153.421V124.863Z" fill="#E0EDFA"/>
<path d="M126.734 129.384H93.8684V131.761H126.734V129.384Z" fill="#E0EDFA"/>
<path d="M111.553 133.909H93.8684V136.286H111.553V133.909Z" fill="#E0EDFA"/>
<path d="M153.421 141.356H93.8684V143.733H153.421V141.356Z" fill="#E0EDFA"/>
<path d="M126.734 145.877H93.8684V148.254H126.734V145.877Z" fill="#E0EDFA"/>
<path d="M111.553 150.403H93.8684V152.779H111.553V150.403Z" fill="#E0EDFA"/>
<path d="M90.9582 107.974H67.8624V121.042H90.9582V107.974Z" fill="#E0EDFA"/>
<path d="M67.8624 121.038L79.4123 114.508L90.9582 121.038H67.8624Z" fill="#CEDAE6"/>
<path d="M90.9582 107.974L79.4123 114.508L67.8624 107.974H90.9582Z" fill="#CEDAE6"/>
<path d="M90.9582 124.787H67.8624V137.855H90.9582V124.787Z" fill="#E0EDFA"/>
<path d="M67.8624 137.851L79.4123 131.321L90.9582 137.851H67.8624Z" fill="#CEDAE6"/>
<path d="M90.9582 124.787L79.4123 131.321L67.8624 124.787H90.9582Z" fill="#CEDAE6"/>
<path d="M90.9582 141.6H67.8624V154.668H90.9582V141.6Z" fill="#E0EDFA"/>
<path d="M67.8624 154.664L79.4123 148.134L90.9582 154.664H67.8624Z" fill="#CEDAE6"/>
<path d="M90.9582 141.6L79.4123 148.134L67.8624 141.6H90.9582Z" fill="#CEDAE6"/>
<g opacity="0.44">
<path opacity="0.44" d="M94.9235 89.7922L57.7099 127.196V94.5097L62.4079 89.7922H94.9235Z" fill="white"/>
<path opacity="0.44" d="M117.506 89.7922L57.7099 149.887V133.17L100.872 89.7922H117.506Z" fill="white"/>
</g>
<g opacity="0.44">
<path opacity="0.44" d="M161.846 97.8745V130.553L128.523 164.039H96.0109L161.846 97.8745Z" fill="white"/>
<path opacity="0.44" d="M161.847 136.53V153.247L151.105 164.039H134.475L161.847 136.53Z" fill="white"/>
</g>
<path d="M75.2803 87.7597L106.156 63.7163C108.106 62.1958 110.834 62.1958 112.785 63.7163L143.66 87.7597V128.052H75.2803V87.7597Z" fill="#EE8F23"/>
<path d="M135.749 66.405H83.1918V124.495H135.749V66.405Z" fill="#FAFAFA"/>
<path d="M132.585 69.9021H86.3534V71.6747H132.585V69.9021Z" fill="#DBDBDB"/>
<path d="M125.641 73.4592H86.3534V75.2318H125.641V73.4592Z" fill="#DBDBDB"/>
<path d="M119.267 77.0203H86.3534V78.7928H119.267V77.0203Z" fill="#DBDBDB"/>
<path d="M119.267 83.8542H86.3534V85.6268H119.267V83.8542Z" fill="#DBDBDB"/>
<path d="M110.767 87.2715H86.3534V89.044H110.767V87.2715Z" fill="#DBDBDB"/>
<path d="M133.882 94.4297H109.469V96.2022H133.882V94.4297Z" fill="#DBDBDB"/>
<path d="M133.887 97.9187H114.028V99.6912H133.887V97.9187Z" fill="#DBDBDB"/>
<path d="M109.468 107.918L75.2803 87.7837V128.052L109.468 107.918Z" fill="#FFAC42"/>
<path d="M109.469 107.918L143.66 87.7837V128.052L109.469 107.918Z" fill="#FFAC42"/>
<path d="M106.156 104.009L75.2803 128.052H143.66L112.785 104.009C110.834 102.492 108.106 102.492 106.156 104.009Z" fill="#FFBE6E"/>
<path d="M148.813 89.2242C149.603 86.3647 147.938 83.4026 145.092 82.6082C142.247 81.8137 139.3 83.4877 138.509 86.3471C137.719 89.2066 139.384 92.1687 142.23 92.9632C145.075 93.7577 148.022 92.0837 148.813 89.2242Z" fill="#FC6D5F"/>
<path d="M142.453 85.0588V90.2404H140.996V86.1912H140.036V85.0588H142.453Z" fill="white"/>
<path d="M146.761 87.3915C147.108 87.6876 147.279 88.0837 147.279 88.5758C147.279 88.8959 147.195 89.192 147.032 89.4601C146.869 89.7282 146.618 89.9442 146.28 90.1043C145.945 90.2643 145.527 90.3444 145.029 90.3444C144.667 90.3444 144.305 90.3004 143.951 90.2123C143.596 90.1243 143.29 89.9963 143.035 89.8362L143.556 88.7319C143.763 88.8719 143.99 88.9759 144.237 89.052C144.484 89.124 144.735 89.164 144.986 89.164C145.237 89.164 145.436 89.116 145.587 89.02C145.738 88.9239 145.81 88.7879 145.81 88.6158C145.81 88.4438 145.738 88.3117 145.591 88.2237C145.444 88.1357 145.185 88.0917 144.811 88.0917H143.409L143.668 85.0627H146.952V86.1951H144.874L144.807 86.9513H145.153C145.882 86.9473 146.415 87.0954 146.761 87.3915Z" fill="white"/>
<path d="M55.5195 40.025C56.4192 40.0611 57.2235 40.3131 57.9361 40.7813C58.6488 41.2494 59.1982 41.8896 59.5844 42.7019C59.8671 43.3021 60.0184 43.8622 60.0303 44.3824C60.0462 44.9025 59.9388 45.3507 59.7198 45.7308C59.4968 46.1109 59.1743 46.403 58.7483 46.6031C58.398 46.7711 58.0596 46.8431 57.7411 46.8151C57.4186 46.7911 57.1319 46.6631 56.8771 46.431C56.8253 47.1672 56.4272 47.7114 55.6787 48.0715C55.2885 48.2596 54.8745 48.3276 54.4365 48.2796C53.9986 48.2316 53.5885 48.0675 53.2063 47.7834C52.8241 47.4993 52.5175 47.1112 52.2826 46.6191C52.0477 46.1269 51.9442 45.6428 51.9601 45.1666C51.98 44.6905 52.1075 44.2704 52.3503 43.9022C52.5892 43.5341 52.9077 43.254 53.3058 43.066C53.8911 42.7859 54.4405 42.7579 54.9581 42.974L54.7272 42.4858L56.3476 41.7096L57.7888 44.7585C57.8884 44.9706 58.0038 45.1066 58.1272 45.1626C58.2507 45.2186 58.3781 45.2146 58.5134 45.1506C58.9315 44.9506 58.8956 44.3344 58.4059 43.3021C58.1073 42.6699 57.6933 42.1777 57.1638 41.8256C56.6342 41.4735 56.037 41.2894 55.3682 41.2694C54.6993 41.2494 54.0145 41.4095 53.3138 41.7416C52.6171 42.0737 52.0716 42.5178 51.6735 43.078C51.2754 43.6342 51.0524 44.2503 51.0046 44.9226C50.9568 45.5948 51.0882 46.259 51.4028 46.9192C51.7213 47.5914 52.1512 48.1235 52.6967 48.5197C53.2421 48.9118 53.8513 49.1318 54.5241 49.1719C55.197 49.2119 55.8818 49.0678 56.5785 48.7357C57.2872 48.3956 57.8764 47.9355 58.3502 47.3513L59.2221 48.2436C58.9952 48.5317 58.6886 48.8198 58.3104 49.1078C57.9322 49.3959 57.53 49.64 57.104 49.8441C56.1445 50.3042 55.201 50.5083 54.2813 50.4603C53.3576 50.4122 52.5335 50.1322 51.8009 49.624C51.0683 49.1158 50.495 48.4276 50.0849 47.5554C49.6749 46.6911 49.5076 45.8108 49.5833 44.9226C49.6589 44.0343 49.9695 43.21 50.5189 42.4578C51.0683 41.7056 51.8288 41.0974 52.7962 40.6332C53.708 40.1931 54.6197 39.989 55.5195 40.025ZM56.0291 45.8708C56.1167 45.5828 56.0729 45.2587 55.9017 44.8905C55.7305 44.5304 55.5075 44.2944 55.2328 44.1823C54.9541 44.0703 54.6714 44.0823 54.3808 44.2223C54.0902 44.3624 53.903 44.5744 53.8154 44.8585C53.7318 45.1426 53.7756 45.4667 53.9429 45.8268C54.1141 46.1869 54.337 46.427 54.6117 46.5431C54.8864 46.6591 55.1691 46.6511 55.4637 46.511C55.7504 46.371 55.9415 46.1589 56.0291 45.8708Z" fill="#BCDFEB"/>
<path d="M146.239 42.1498L145.725 43.8183L147.198 44.0904L146.92 45.6148L145.26 45.3067L144.714 47.0273L143.114 46.7312L143.659 45.0106L142.21 44.7426L141.664 46.4631L140.064 46.167L140.609 44.4465L139.124 44.1704L139.403 42.6459L141.075 42.954L141.589 41.2855L140.104 41.0094L140.382 39.4849L142.055 39.793L142.6 38.0725L144.2 38.3686L143.655 40.0891L145.104 40.3572L145.65 38.6367L147.25 38.9328L146.705 40.6533L148.19 40.9294L147.911 42.4539L146.239 42.1498ZM144.638 41.8537L143.189 41.5856L142.676 43.2541L144.125 43.5222L144.638 41.8537Z" fill="#BCDFEB"/>
<path d="M69.4747 145.117H49.6516C43.6358 145.117 38.7587 140.216 38.7587 134.17C38.7587 128.124 43.6358 123.223 49.6516 123.223H58.5818C64.5976 123.223 69.4747 128.124 69.4747 134.17V145.117Z" fill="#FFBE6E"/>
<path d="M54.1141 125.892C49.5714 125.892 45.8767 129.605 45.8767 134.17C45.8767 138.736 49.5714 142.449 54.1141 142.449C58.6568 142.449 62.3515 138.736 62.3515 134.17C62.3515 129.605 58.6568 125.892 54.1141 125.892ZM46.9437 134.17C46.9437 133.614 47.0114 133.078 47.1308 132.558C47.5091 132.386 48.1978 132.102 49.1693 131.845C48.9503 133.09 48.8667 134.486 49.0658 135.959C48.4128 135.787 47.74 135.579 47.0432 135.335C46.9835 134.954 46.9437 134.566 46.9437 134.17ZM50.2562 131.601C52.0717 131.253 54.5441 131.093 57.5341 131.653C57.8207 133.082 57.9601 134.734 57.7053 136.427C55.8062 136.759 53.2422 136.867 50.1567 136.215C49.8541 134.538 49.9695 132.958 50.2562 131.601ZM58.6489 131.893C59.4411 132.082 60.2653 132.322 61.1173 132.622C61.2248 133.122 61.2885 133.638 61.2885 134.17C61.2885 134.586 61.2447 134.99 61.177 135.387C60.7948 135.571 59.9826 135.911 58.8001 136.199C58.9793 134.682 58.8758 133.21 58.6489 131.893ZM60.7231 131.365C59.9269 131.109 59.1545 130.905 58.41 130.741C58.1193 129.537 57.7531 128.52 57.4505 127.796C58.9116 128.568 60.0742 129.829 60.7231 131.365ZM56.0252 127.228C56.2043 127.58 56.8055 128.813 57.2673 130.517C54.5839 130.065 52.3145 130.161 50.5468 130.449C51.0206 128.861 51.6576 127.724 51.9045 127.316C52.6012 127.088 53.3457 126.96 54.1181 126.96C54.779 126.96 55.416 127.06 56.0252 127.228ZM50.3398 128.052C50.0332 128.736 49.6908 129.629 49.4241 130.669C48.6875 130.841 48.0704 131.033 47.5807 131.213C48.17 129.905 49.1334 128.804 50.3398 128.052ZM47.3578 136.567C48.0147 136.783 48.6517 136.959 49.2728 137.111C49.5316 138.207 49.9576 139.332 50.6105 140.456C49.1096 139.604 47.943 138.223 47.3578 136.567ZM52.3464 141.148C51.3948 139.884 50.7857 138.604 50.4234 137.363C51.9443 137.655 53.3457 137.779 54.5998 137.779C55.6628 137.779 56.6224 137.695 57.4744 137.567C57.1598 138.792 56.6144 140.02 55.7544 141.184C55.2289 141.308 54.6795 141.38 54.1181 141.38C53.505 141.38 52.9157 141.292 52.3464 141.148ZM57.4186 140.564C58.0039 139.508 58.3901 138.427 58.617 137.355C59.5327 137.155 60.2772 136.915 60.8266 136.703C60.1976 138.371 58.9753 139.744 57.4186 140.564Z" fill="#FAFAFA"/>
<path d="M147.453 158.63H167.276C173.292 158.63 178.169 153.728 178.169 147.682C178.169 141.636 173.292 136.735 167.276 136.735H158.346C152.33 136.735 147.453 141.636 147.453 147.682V158.63Z" fill="#FFBE6E"/>
<path d="M170.967 144.537C170.967 141.44 166.065 138.779 162.809 141.452C159.552 138.779 154.651 141.44 154.651 144.537C154.651 144.537 153.596 150.607 162.809 155.012C172.018 150.611 170.967 144.537 170.967 144.537Z" stroke="#FAFAFA" stroke-width="3.8114" stroke-miterlimit="10" stroke-linejoin="round"/>
<path d="M140.947 14.0693C140.82 14.0212 140.696 13.9812 140.569 13.9452C140.533 13.8212 140.493 13.6931 140.446 13.5691C140.243 13.065 139.976 12.5608 139.442 12.0566C138.909 12.5608 138.642 13.065 138.439 13.5691C138.391 13.6971 138.351 13.8212 138.316 13.9492C138.188 13.9852 138.065 14.0252 137.937 14.0733C137.436 14.2773 136.934 14.5454 136.432 15.0816C136.934 15.6177 137.436 15.8858 137.937 16.0899C138.061 16.1379 138.188 16.1779 138.312 16.2139C138.347 16.342 138.387 16.466 138.435 16.594C138.638 17.0982 138.905 17.6023 139.442 18.1065C139.98 17.6023 140.247 17.0982 140.45 16.594C140.497 16.47 140.537 16.342 140.573 16.2179C140.696 16.1819 140.824 16.1419 140.947 16.0939C141.449 15.8898 141.951 15.6217 142.452 15.0816C141.951 14.5414 141.449 14.2733 140.947 14.0693Z" fill="#BCDFEB"/>
<path d="M5.44227 98.7311C5.31487 98.6831 5.19145 98.6431 5.06404 98.6071C5.02821 98.483 4.9884 98.355 4.94062 98.231C4.73757 97.7268 4.47082 97.2227 3.93732 96.7185C3.40382 97.2227 3.13707 97.7268 2.93403 98.231C2.88625 98.359 2.84644 98.483 2.8106 98.6111C2.6832 98.6471 2.55978 98.6871 2.43238 98.7351C1.93073 98.9392 1.42908 99.2073 0.927429 99.7434C1.42908 100.28 1.93073 100.548 2.43238 100.752C2.5558 100.8 2.6832 100.84 2.80662 100.876C2.84246 101.004 2.88227 101.128 2.93004 101.256C3.13309 101.76 3.39984 102.264 3.93732 102.768C4.47481 102.264 4.74156 101.76 4.9446 101.256C4.99238 101.132 5.03219 101.004 5.06803 100.88C5.19145 100.844 5.31885 100.804 5.44227 100.756C5.94392 100.552 6.44557 100.284 6.94722 99.7434C6.44557 99.2033 5.94392 98.9352 5.44227 98.7311Z" fill="#BCDFEB"/>
<path d="M151.331 74.2196C151.203 74.1716 151.08 74.1316 150.952 74.0956C150.917 73.9716 150.877 73.8435 150.829 73.7195C150.626 73.2153 150.359 72.7112 149.826 72.207C149.292 72.7112 149.025 73.2153 148.822 73.7195C148.775 73.8475 148.735 73.9716 148.699 74.0996C148.572 74.1356 148.448 74.1756 148.321 74.2236C147.819 74.4277 147.317 74.6958 146.816 75.232C147.317 75.7681 147.819 76.0362 148.321 76.2403C148.444 76.2883 148.572 76.3283 148.695 76.3643C148.731 76.4923 148.771 76.6164 148.818 76.7444C149.021 77.2486 149.288 77.7527 149.826 78.2569C150.363 77.7527 150.63 77.2486 150.833 76.7444C150.881 76.6204 150.921 76.4923 150.956 76.3683C151.08 76.3323 151.207 76.2923 151.331 76.2443C151.832 76.0402 152.334 75.7721 152.836 75.232C152.334 74.6918 151.832 74.4237 151.331 74.2196Z" fill="#BCDFEB"/>
<path d="M203.734 21.9076C203.67 21.8836 203.606 21.8636 203.542 21.8436C203.527 21.7795 203.507 21.7195 203.483 21.6555C203.379 21.4034 203.248 21.1513 202.981 20.8953C202.714 21.1473 202.579 21.3994 202.479 21.6555C202.456 21.7195 202.436 21.7835 202.416 21.8476C202.352 21.8636 202.288 21.8876 202.225 21.9116C201.974 22.0156 201.723 22.1476 201.468 22.4157C201.719 22.6838 201.97 22.8199 202.225 22.9199C202.288 22.9439 202.348 22.9639 202.412 22.9799C202.428 23.0439 202.452 23.1079 202.475 23.172C202.575 23.424 202.71 23.6761 202.981 23.9322C203.252 23.6801 203.383 23.428 203.487 23.172C203.511 23.1079 203.53 23.0439 203.546 22.9839C203.61 22.9679 203.674 22.9479 203.734 22.9239C203.984 22.8239 204.235 22.6878 204.49 22.4157C204.239 22.1436 203.984 22.0076 203.734 21.9076Z" fill="#DBF6FF"/>
<path d="M219.244 66.9535C219.181 66.9295 219.117 66.9095 219.053 66.8895C219.037 66.8254 219.018 66.7654 218.994 66.7014C218.89 66.4493 218.759 66.1972 218.492 65.9412C218.225 66.1932 218.09 66.4453 217.99 66.7014C217.966 66.7654 217.947 66.8294 217.927 66.8935C217.863 66.9095 217.799 66.9335 217.736 66.9575C217.485 67.0615 217.234 67.1936 216.979 67.4616C217.23 67.7297 217.481 67.8658 217.736 67.9658C217.799 67.9898 217.859 68.0098 217.923 68.0258C217.939 68.0898 217.958 68.1539 217.986 68.2179C218.086 68.4699 218.221 68.722 218.492 68.9781C218.763 68.726 218.894 68.4739 218.998 68.2179C219.021 68.1539 219.041 68.0898 219.057 68.0298C219.121 68.0138 219.185 67.9938 219.244 67.9698C219.495 67.8698 219.746 67.7337 220.001 67.4616C219.746 67.1896 219.495 67.0535 219.244 66.9535Z" fill="#DBF6FF"/>
<path d="M218.651 65.8971C218.588 65.8731 218.524 65.8531 218.46 65.8331C218.444 65.769 218.424 65.709 218.4 65.645C218.297 65.3929 218.166 65.1408 217.899 64.8848C217.632 65.1368 217.497 65.3889 217.397 65.645C217.373 65.709 217.353 65.773 217.333 65.8371C217.27 65.8531 217.206 65.8771 217.142 65.9011C216.892 66.0051 216.641 66.1372 216.386 66.4052C216.637 66.6733 216.888 66.8094 217.142 66.9094C217.206 66.9334 217.266 66.9534 217.329 66.9694C217.345 67.0334 217.369 67.0974 217.393 67.1615C217.493 67.4135 217.628 67.6656 217.899 67.9217C218.169 67.6696 218.301 67.4175 218.404 67.1615C218.428 67.0974 218.448 67.0334 218.464 66.9734C218.528 66.9574 218.592 66.9374 218.651 66.9134C218.902 66.8134 219.153 66.6773 219.408 66.4052C219.153 66.1332 218.902 65.9971 218.651 65.8971Z" fill="#DBF6FF"/>
<path d="M36.8473 79.6615C36.7836 79.6375 36.7199 79.6175 36.6562 79.5975C36.6403 79.5334 36.6204 79.4734 36.5965 79.4094C36.493 79.1573 36.3616 78.9052 36.0948 78.6492C35.8281 78.9012 35.6927 79.1533 35.5932 79.4094C35.5693 79.4734 35.5494 79.5374 35.5295 79.6015C35.4658 79.6175 35.4021 79.6415 35.3384 79.6655C35.0875 79.7695 34.8367 79.9016 34.5819 80.1696C34.8327 80.4377 35.0836 80.5738 35.3384 80.6738C35.4021 80.6978 35.4618 80.7178 35.5255 80.7338C35.5414 80.7978 35.5653 80.8618 35.5892 80.9259C35.6887 81.1779 35.8241 81.43 36.0948 81.6861C36.3656 81.434 36.4969 81.1819 36.6005 80.9259C36.6243 80.8618 36.6442 80.8018 36.6602 80.7378C36.7239 80.7218 36.7876 80.7018 36.8473 80.6778C37.0981 80.5778 37.3489 80.4417 37.6037 80.1696C37.3489 79.8976 37.0981 79.7615 36.8473 79.6615Z" fill="#BCDFEB"/>
<path d="M9.16468 159.646C9.10098 159.622 9.03727 159.602 8.97357 159.582C8.95765 159.518 8.93774 159.458 8.91385 159.394C8.81034 159.142 8.67895 158.89 8.4122 158.634C8.14545 158.886 8.01009 159.138 7.91055 159.394C7.88667 159.458 7.86676 159.522 7.84685 159.586C7.78315 159.602 7.71945 159.626 7.65575 159.65C7.40492 159.754 7.1541 159.886 6.89929 160.154C7.15012 160.422 7.40094 160.558 7.65575 160.658C7.71945 160.682 7.77917 160.702 7.84287 160.718C7.8588 160.782 7.88268 160.846 7.90657 160.91C8.00611 161.162 8.14147 161.414 8.4122 161.67C8.68293 161.418 8.81432 161.166 8.91783 160.91C8.94172 160.846 8.96163 160.782 8.97755 160.722C9.04125 160.706 9.10496 160.686 9.16468 160.662C9.4155 160.562 9.66633 160.426 9.92113 160.154C9.67031 159.882 9.41948 159.746 9.16468 159.646Z" fill="#BCDFEB"/>
<path d="M116.291 39.513C116.227 39.489 116.163 39.469 116.1 39.449C116.084 39.385 116.064 39.325 116.04 39.261C115.936 39.0089 115.805 38.7568 115.538 38.5007C115.271 38.7528 115.136 39.0049 115.037 39.261C115.013 39.325 114.993 39.389 114.973 39.453C114.909 39.469 114.845 39.493 114.782 39.517C114.531 39.6211 114.28 39.7531 114.025 40.0212C114.276 40.2893 114.527 40.4253 114.782 40.5254C114.845 40.5494 114.905 40.5694 114.969 40.5854C114.985 40.6494 115.009 40.7134 115.033 40.7774C115.132 41.0295 115.267 41.2816 115.538 41.5377C115.809 41.2856 115.94 41.0335 116.044 40.7774C116.068 40.7134 116.088 40.6534 116.104 40.5894C116.167 40.5734 116.231 40.5534 116.291 40.5294C116.542 40.4293 116.792 40.2933 117.047 40.0212C116.792 39.7531 116.542 39.6171 116.291 39.513Z" fill="#BCDFEB"/>
<path d="M43.1734 13.7611C43.1097 13.7371 43.046 13.7171 42.9823 13.6971C42.9664 13.633 42.9465 13.573 42.9226 13.509C42.8191 13.2569 42.6877 13.0049 42.421 12.7488C42.1542 13.0009 42.0188 13.2529 41.9193 13.509C41.8954 13.573 41.8755 13.6371 41.8556 13.7011C41.7919 13.7171 41.7282 13.7411 41.6645 13.7651C41.4137 13.8691 41.1629 14.0012 40.9081 14.2692C41.1589 14.5373 41.4097 14.6734 41.6645 14.7734C41.7282 14.7974 41.7879 14.8174 41.8516 14.8334C41.8676 14.8974 41.8914 14.9615 41.9153 15.0255C42.0149 15.2776 42.1502 15.5296 42.421 15.7857C42.6917 15.5336 42.8231 15.2816 42.9266 15.0255C42.9505 14.9615 42.9704 14.8974 42.9863 14.8374C43.05 14.8214 43.1137 14.8014 43.1734 14.7774C43.4243 14.6774 43.6751 14.5413 43.9299 14.2692C43.6751 13.9972 43.4243 13.8651 43.1734 13.7611Z" fill="#BCDFEB"/>
<path d="M199.422 81.9781C199.358 81.9541 199.294 81.9341 199.231 81.9141C199.215 81.8501 199.195 81.7901 199.171 81.7261C199.067 81.474 198.936 81.2219 198.669 80.9658C198.403 81.2179 198.267 81.47 198.168 81.7261C198.144 81.7901 198.124 81.8541 198.104 81.9181C198.04 81.9341 197.977 81.9581 197.913 81.9821C197.662 82.0862 197.411 82.2182 197.156 82.4863C197.407 82.7544 197.658 82.8904 197.913 82.9904C197.977 83.0145 198.036 83.0345 198.1 83.0505C198.116 83.1145 198.14 83.1785 198.164 83.2425C198.263 83.4946 198.399 83.7467 198.669 84.0028C198.94 83.7507 199.071 83.4986 199.175 83.2425C199.199 83.1785 199.219 83.1145 199.235 83.0545C199.298 83.0385 199.362 83.0184 199.422 82.9944C199.673 82.8944 199.923 82.7584 200.178 82.4863C199.923 82.2142 199.673 82.0822 199.422 81.9781Z" fill="#BCDFEB"/>
<path d="M124.707 55.482C124.643 55.458 124.579 55.438 124.516 55.418C124.5 55.354 124.48 55.294 124.456 55.23C124.352 54.9779 124.221 54.7258 123.954 54.4697C123.688 54.7218 123.552 54.9739 123.453 55.23C123.429 55.294 123.409 55.358 123.389 55.422C123.325 55.438 123.262 55.462 123.198 55.486C122.947 55.5901 122.696 55.7221 122.441 55.9902C122.692 56.2583 122.943 56.3943 123.198 56.4943C123.262 56.5184 123.321 56.5384 123.385 56.5544C123.401 56.6184 123.425 56.6824 123.449 56.7464C123.548 56.9985 123.684 57.2506 123.954 57.5067C124.225 57.2546 124.356 57.0025 124.46 56.7464C124.484 56.6824 124.504 56.6184 124.52 56.5584C124.583 56.5424 124.647 56.5224 124.707 56.4983C124.958 56.3983 125.208 56.2623 125.463 55.9902C125.212 55.7181 124.958 55.5821 124.707 55.482Z" fill="#DBF6FF"/>
<path d="M96.2447 25.4566C96.1332 25.4126 96.0218 25.3766 95.9103 25.3486C95.8784 25.2366 95.8426 25.1285 95.8028 25.0165C95.6236 24.5724 95.3887 24.1282 94.9189 23.6841C94.4491 24.1282 94.2142 24.5724 94.0351 25.0165C93.9913 25.1285 93.9554 25.2406 93.9276 25.3486C93.8161 25.3806 93.7046 25.4166 93.5971 25.4566C93.1552 25.6367 92.7133 25.8728 92.2713 26.3449C92.7133 26.817 93.1552 27.0531 93.5971 27.2332C93.7086 27.2732 93.8161 27.3092 93.9276 27.3412C93.9594 27.4532 93.9953 27.5653 94.0351 27.6773C94.2142 28.1214 94.4491 28.5656 94.9229 29.0097C95.3967 28.5656 95.6316 28.1214 95.8108 27.6773C95.8506 27.5653 95.8864 27.4572 95.9183 27.3452C96.0297 27.3132 96.1372 27.2772 96.2487 27.2372C96.6906 27.0571 97.1326 26.821 97.5745 26.3449C97.1286 25.8728 96.6867 25.6367 96.2447 25.4566Z" fill="#BCDFEB"/>
<path d="M28.6533 57.7625C28.5418 57.7185 28.4304 57.6825 28.3189 57.6545C28.287 57.5425 28.2512 57.4344 28.2114 57.3224C28.0322 56.8783 27.7973 56.4341 27.3275 55.99C26.8577 56.4341 26.6228 56.8783 26.4437 57.3224C26.3999 57.4344 26.364 57.5465 26.3362 57.6545C26.2247 57.6865 26.1132 57.7225 26.0057 57.7625C25.5638 57.9426 25.1219 58.1787 24.6799 58.6508C25.1219 59.123 25.5638 59.359 26.0057 59.5391C26.1172 59.5831 26.2247 59.6191 26.3362 59.6471C26.368 59.7592 26.4039 59.8712 26.4437 59.9832C26.6228 60.4274 26.8577 60.8715 27.3315 61.3156C27.8053 60.8715 28.0402 60.4274 28.2193 59.9832C28.2592 59.8712 28.295 59.7632 28.3268 59.6511C28.4383 59.6191 28.5458 59.5831 28.6573 59.5431C29.0992 59.363 29.5412 59.127 29.9831 58.6508C29.5372 58.1787 29.0952 57.9426 28.6533 57.7625Z" fill="#BCDFEB"/>
<path d="M171.512 47.0152C171.4 46.9712 171.289 46.9352 171.177 46.9072C171.145 46.7952 171.11 46.6871 171.07 46.5751C170.891 46.1309 170.656 45.6868 170.186 45.2427C169.716 45.6868 169.481 46.1309 169.302 46.5751C169.258 46.6871 169.222 46.7992 169.195 46.9072C169.083 46.9392 168.972 46.9752 168.864 47.0152C168.422 47.1953 167.98 47.4313 167.538 47.9035C167.98 48.3756 168.422 48.6117 168.864 48.7918C168.976 48.8318 169.083 48.8678 169.195 48.8998C169.226 49.0118 169.262 49.1239 169.302 49.2359C169.481 49.68 169.716 50.1242 170.19 50.5683C170.664 50.1242 170.899 49.68 171.078 49.2359C171.118 49.1239 171.153 49.0158 171.185 48.9038C171.297 48.8718 171.404 48.8358 171.516 48.7958C171.958 48.6157 172.4 48.3796 172.841 47.9035C172.392 47.4313 171.95 47.1953 171.512 47.0152Z" fill="#DBF6FF"/>
<path d="M237.674 32.0667C237.562 32.0227 237.451 31.9867 237.339 31.9587C237.307 31.8467 237.272 31.7386 237.232 31.6266C237.053 31.1825 236.818 30.7383 236.348 30.2942C235.878 30.7383 235.643 31.1825 235.464 31.6266C235.42 31.7386 235.384 31.8507 235.357 31.9587C235.245 31.9907 235.134 32.0267 235.026 32.0667C234.584 32.2468 234.142 32.4829 233.7 32.955C234.142 33.4272 234.584 33.6632 235.026 33.8433C235.138 33.8873 235.245 33.9193 235.357 33.9513C235.388 34.0634 235.424 34.1754 235.464 34.2874C235.643 34.7316 235.878 35.1757 236.352 35.6198C236.826 35.1757 237.061 34.7316 237.24 34.2874C237.28 34.1754 237.315 34.0674 237.347 33.9553C237.459 33.9233 237.566 33.8873 237.678 33.8473C238.12 33.6672 238.562 33.4312 239.003 32.955C238.558 32.4829 238.116 32.2468 237.674 32.0667Z" fill="#DBF6FF"/>
<path d="M168.255 11.5284C168.143 11.4844 168.032 11.4484 167.92 11.4204C167.889 11.3083 167.853 11.2003 167.813 11.0883C167.634 10.6441 167.399 10.2 166.929 9.75586C166.459 10.2 166.224 10.6441 166.045 11.0883C166.001 11.2003 165.966 11.3123 165.938 11.4204C165.826 11.4524 165.715 11.4884 165.607 11.5284C165.165 11.7085 164.723 11.9445 164.281 12.4167C164.723 12.8888 165.165 13.1249 165.607 13.3049C165.719 13.349 165.826 13.381 165.938 13.413C165.97 13.525 166.005 13.6371 166.045 13.7491C166.224 14.1932 166.459 14.6374 166.933 15.0815C167.407 14.6374 167.642 14.1932 167.821 13.7491C167.861 13.6371 167.897 13.529 167.928 13.417C168.04 13.385 168.147 13.349 168.259 13.309C168.701 13.1289 169.143 12.8928 169.585 12.4167C169.139 11.9445 168.697 11.7085 168.255 11.5284Z" fill="#DBF6FF"/>
</svg>
