<svg width="72" height="72" viewBox="0 0 72 72" fill="none" xmlns="http://www.w3.org/2000/svg">
<circle cx="36" cy="36" r="36" fill="url(#paint0_linear_2332_15336)"/>
<g filter="url(#filter0_dd_2332_15336)">
<path d="M52.7861 31.1429C52.7861 37.8492 47.3495 43.2857 40.6432 43.2857C33.9369 43.2857 28.5004 37.8492 28.5004 31.1429C28.5004 24.4365 33.9369 19 40.6432 19C47.3495 19 52.7861 24.4365 52.7861 31.1429Z" fill="url(#paint1_linear_2332_15336)"/>
<path d="M32.1429 46.9287C32.1429 50.2819 29.4246 53.0002 26.0714 53.0002C22.7183 53.0002 20 50.2819 20 46.9287C20 43.5756 22.7183 40.8573 26.0714 40.8573C29.4246 40.8573 32.1429 43.5756 32.1429 46.9287Z" fill="url(#paint2_linear_2332_15336)"/>
</g>
<defs>
<filter id="filter0_dd_2332_15336" x="16" y="14" width="40.7861" height="42.0001" filterUnits="userSpaceOnUse" color-interpolation-filters="sRGB">
<feFlood flood-opacity="0" result="BackgroundImageFix"/>
<feColorMatrix in="SourceAlpha" type="matrix" values="0 0 0 0 0 0 0 0 0 0 0 0 0 0 0 0 0 0 127 0" result="hardAlpha"/>
<feOffset dy="1"/>
<feGaussianBlur stdDeviation="1"/>
<feComposite in2="hardAlpha" operator="out"/>
<feColorMatrix type="matrix" values="0 0 0 0 0 0 0 0 0 0 0 0 0 0 0 0 0 0 0.23 0"/>
<feBlend mode="normal" in2="BackgroundImageFix" result="effect1_dropShadow_2332_15336"/>
<feColorMatrix in="SourceAlpha" type="matrix" values="0 0 0 0 0 0 0 0 0 0 0 0 0 0 0 0 0 0 127 0" result="hardAlpha"/>
<feOffset dy="-1"/>
<feGaussianBlur stdDeviation="2"/>
<feComposite in2="hardAlpha" operator="out"/>
<feColorMatrix type="matrix" values="0 0 0 0 1 0 0 0 0 1 0 0 0 0 1 0 0 0 0.35 0"/>
<feBlend mode="normal" in2="effect1_dropShadow_2332_15336" result="effect2_dropShadow_2332_15336"/>
<feBlend mode="normal" in="SourceGraphic" in2="effect2_dropShadow_2332_15336" result="shape"/>
</filter>
<linearGradient id="paint0_linear_2332_15336" x1="23" y1="3.5" x2="50.5" y2="69.5" gradientUnits="userSpaceOnUse">
<stop stop-color="#946FFF"/>
<stop offset="1" stop-color="#365CF6"/>
</linearGradient>
<linearGradient id="paint1_linear_2332_15336" x1="40.6432" y1="19" x2="40.6432" y2="61.5" gradientUnits="userSpaceOnUse">
<stop stop-color="white"/>
<stop offset="1" stop-color="white" stop-opacity="0"/>
</linearGradient>
<linearGradient id="paint2_linear_2332_15336" x1="26.0714" y1="21.4287" x2="26.0714" y2="53.0002" gradientUnits="userSpaceOnUse">
<stop stop-color="white" stop-opacity="0"/>
<stop offset="1" stop-color="white"/>
</linearGradient>
</defs>
</svg>
