<svg fill="none" height="26" viewBox="0 0 146 26" width="146" xmlns="http://www.w3.org/2000/svg"><g fill="#fff"><path d="m30.3442 20.5833h2.9144v-5.3244h3.0794c3.7157 0 5.7109-2.1851 5.7109-5.2166 0-3.0084-1.9717-5.21661-5.6717-5.21661h-6.033zm2.9144-7.6711v-5.70134h2.6709c2.1838 0 3.1501 1.15412 3.1501 2.83144 0 1.6773-.9663 2.8699-3.1344 2.8699zm14.0398-8.08651h-2.8437v15.75761h2.8437zm6.3964 15.99611c1.8932 0 3.0243-.8695 3.5429-1.862h.0942v1.6235h2.7337v-7.9096c0-3.12382-2.6001-4.06251-4.9018-4.06251-2.5373 0-4.4855 1.10796-5.114 3.26231l2.6552.3693c.2828-.8079 1.0841-1.5003 2.4745-1.5003 1.3198 0 2.0425.6617 2.0425 1.8234v.0462c0 .8003-.8564.8387-2.9852 1.0619-2.341.2461-4.5797.9309-4.5797 3.5931 0 2.3236 1.736 3.5547 4.0377 3.5547zm.7384-2.0466c-1.1862 0-2.0346-.531-2.0346-1.5543 0-1.0694.9506-1.5157 2.2231-1.6927.7463-.1 2.2389-.2847 2.6081-.5771v1.3926c0 1.3158-1.084 2.4315-2.7966 2.4315zm8.4918 1.8081h2.8438v-11.81822h-2.8438zm1.4297-13.49555c.9034 0 1.6419-.67708 1.6419-1.50804 0-.83866-.7385-1.51575-1.6419-1.51575-.9112 0-1.6496.67709-1.6496 1.51575 0 .83096.7384 1.50804 1.6496 1.50804zm7.182 6.57085c0-1.7082 1.0526-2.693 2.553-2.693 1.4691 0 2.3488.9463 2.3488 2.5237v7.094h2.8437v-7.5249c.0079-2.8314-1.6417-4.44721-4.132-4.44721-1.8068 0-3.0479.84636-3.5978 2.16201h-.1413v-2.00812h-2.7181v11.81822h2.8437zm11.3356 6.9247 1.7203-4.7473h6.7558l1.7203 4.7473h1.5398l-5.8524-15.75761h-1.5712l-5.8524 15.75761zm2.1916-6.0399 2.8516-7.84804h.11l2.8516 7.84804zm16.3551 6.2861c2.192 0 3.213-1.3619 3.708-2.439h.165v2.1928h1.367v-15.75761h-1.406v6.19381h-.126c-.479-1.06183-1.477-2.416-3.684-2.416-2.9775 0-4.9885 2.4621-4.9885 6.1015 0 3.67 2.0032 6.1245 4.9645 6.1245zm.165-1.2542c-2.4036 0-3.7234-2.1389-3.7234-4.8934 0-2.7237 1.3041-4.83195 3.7234-4.83195 2.357 0 3.692 2.00045 3.692 4.83195 0 2.8545-1.351 4.8934-3.692 4.8934zm9.057 1.008h1.399v-7.571c0-1.839 1.249-3.14697 2.923-3.14697 1.649 0 2.608 1.07727 2.608 2.67757v8.0404h1.429v-7.7788c0-1.7004 1.037-2.93917 2.876-2.93917 1.593 0 2.654.93867 2.654 2.80067v7.9173h1.398v-7.9173c0-2.6468-1.39-4.05481-3.629-4.05481-1.76 0-3.032.83866-3.574 2.14671h-.102c-.535-1.33882-1.595-2.14671-3.26-2.14671-1.579 0-2.757.74633-3.236 1.96971h-.126v-1.81582h-1.36zm19.005 0h1.406v-11.81822h-1.406zm.715-13.84947c.573 0 1.052-.44626 1.052-.98485s-.479-.98485-1.052-.98485c-.574 0-1.045.44626-1.045.98485s.471.98485 1.045.98485zm5.787 6.46307c0-2.062 1.383-3.33157 3.284-3.33157 1.854 0 3.048 1.21567 3.048 3.14697v7.571h1.398v-7.6557c0-2.8007-1.658-4.31641-4.092-4.31641-1.768 0-2.985.8002-3.551 2.00821h-.126v-1.85432h-1.359v11.81822h1.398z"/><path d="m26.1608 11.2572-5.1296-8.66671c-.513-.94202-1.5389-1.50724-2.6289-1.50724h-10.25913c-1.09003 0-2.11594.56522-2.62889 1.50724l-5.129563 8.66671c-.512956.942-.512956 2.0724 0 3.0144l5.129563 8.6667c.51295.9421 1.53886 1.5073 2.62889 1.5073h10.25913c1.09 0 2.1159-.5652 2.6289-1.5073l5.1296-8.6667c.5128-.942.5128-2.0724 0-3.0144zm-1.9877 1.884-5.1296 8.6667c-.1283.2512-.3847.3768-.7053.3768h-10.19503c-.25647 0-.57707-.1256-.70531-.3768l-5.12956-8.6667c-.12824-.2511-.12824-.5652 0-.8164l5.12956-8.66667c.12824-.2512.38471-.37681.70531-.37681h10.25913c.2565 0 .577.12561.7053.37681l5.1295 8.66667c.1283.314.1283.5653-.064.8164z"/><path d="m17.9394 7.3125h-2.0546c-1.7 0-3.0921 1.36349-3.0921 3.0286v2.1888h-2.2347c-1.70008 0-3.09218 1.3635-3.09218 3.0286v2.0124c0 .87.73259 1.5876 1.62091 1.5876h2.05467c1.7 0 3.0921-1.3634 3.0921-3.0285v-2.1889h2.2348c1.7 0 3.0921-1.3635 3.0921-3.0286v-2.0124c0-.89824-.736-1.5876-1.621-1.5876zm-5.1467 8.7926c0 .8939-.7387 1.6174-1.6513 1.6174h-2.05467c-.10095 0-.18007-.0776-.18007-.1764v-2.0125c0-.8939.73864-1.6173 1.65134-1.6173h2.2347zm5.3268-5.2174c0 .8939-.7386 1.6173-1.6512 1.6173h-2.2348v-2.1888c0-.89384.7386-1.61731 1.6513-1.61731h2.0546c.101 0 .1801.0775.1801.17637z" stroke="#fff" stroke-width=".5"/></g></svg>