<svg width="149" height="28" viewBox="0 0 149 28" fill="none" xmlns="http://www.w3.org/2000/svg">
<path d="M40.1725 22.6067V6.26328H46.2711C47.3826 6.26328 48.3625 6.46803 49.2108 6.87753C50.0736 7.27241 50.7464 7.8574 51.229 8.63253C51.7116 9.39303 51.953 10.3217 51.953 11.4186C51.953 12.5008 51.7043 13.4295 51.2071 14.2047C50.7245 14.9652 50.059 15.5502 49.2108 15.9597C48.3625 16.3692 47.3826 16.5739 46.2711 16.5739H43.156V22.6067H40.1725ZM43.156 13.9414H46.315C46.8561 13.9414 47.3241 13.839 47.719 13.6343C48.1139 13.4149 48.421 13.1151 48.6404 12.7348C48.8598 12.3546 48.9695 11.9158 48.9695 11.4186C48.9695 10.9067 48.8598 10.468 48.6404 10.1023C48.421 9.72209 48.1139 9.42959 47.719 9.22484C47.3241 9.00547 46.8561 8.89578 46.315 8.89578H43.156V13.9414Z" fill="white"/>
<path d="M53.7175 22.6067V6.00003H56.5914V22.6067H53.7175Z" fill="white"/>
<path d="M62.4257 22.87C61.5921 22.87 60.8681 22.731 60.2539 22.4532C59.6396 22.1753 59.1643 21.7804 58.828 21.2685C58.4916 20.742 58.3234 20.1351 58.3234 19.4477C58.3234 18.7896 58.4696 18.2046 58.7621 17.6927C59.0546 17.1662 59.508 16.7275 60.1223 16.3765C60.7365 16.0255 61.5116 15.7768 62.4476 15.6306L66.3525 14.9944V17.1882L62.9961 17.7585C62.4257 17.8609 62.0016 18.0437 61.7237 18.307C61.4458 18.5702 61.3069 18.9139 61.3069 19.338C61.3069 19.7475 61.4605 20.0766 61.7676 20.3252C62.0893 20.5592 62.4842 20.6762 62.9522 20.6762C63.5518 20.6762 64.0783 20.5519 64.5317 20.3033C64.9997 20.04 65.358 19.6817 65.6066 19.2283C65.8699 18.775 66.0015 18.2777 66.0015 17.7366V14.6653C66.0015 14.1535 65.7968 13.7293 65.3873 13.393C64.9924 13.042 64.4659 12.8665 63.8078 12.8665C63.1935 12.8665 62.6451 13.0347 62.1625 13.371C61.6945 13.6928 61.3508 14.1242 61.1314 14.6653L58.7841 13.5246C59.0181 12.8957 59.3837 12.3546 59.881 11.9012C60.3928 11.4332 60.9925 11.0676 61.6798 10.8043C62.3672 10.5411 63.1131 10.4095 63.9175 10.4095C64.8973 10.4095 65.7602 10.5923 66.5061 10.9579C67.252 11.3089 67.8296 11.8062 68.2391 12.4497C68.6633 13.0785 68.8753 13.8171 68.8753 14.6653V22.6067H66.1551V20.5665L66.7693 20.5227C66.4622 21.0345 66.0966 21.466 65.6725 21.817C65.2483 22.1533 64.7657 22.4166 64.2246 22.6067C63.6835 22.7822 63.0838 22.87 62.4257 22.87Z" fill="white"/>
<path d="M71.0927 22.6067V10.6727H73.9665V22.6067H71.0927ZM72.5296 9.33453C71.7361 9.33453 71.0927 8.69121 71.0927 7.89762C71.0927 7.10404 71.7361 6.41526 72.5296 6.41526C73.3232 6.41526 73.9665 7.10404 73.9665 7.89762C73.9665 8.6912 73.3232 9.33453 72.5296 9.33453Z" fill="white"/>
<path d="M76.1812 22.6067V10.6727H78.8795V13.02L78.6601 12.6032C78.938 11.8866 79.3914 11.3455 80.0203 10.9798C80.6638 10.5996 81.4096 10.4095 82.2579 10.4095C83.1354 10.4095 83.9105 10.5996 84.5833 10.9798C85.2706 11.3601 85.8044 11.8939 86.1847 12.5813C86.5649 13.254 86.7551 14.0365 86.7551 14.9286V22.6067H83.8813V15.6087C83.8813 15.0822 83.7789 14.6288 83.5741 14.2485C83.3694 13.8683 83.0842 13.5758 82.7186 13.371C82.3676 13.1517 81.9508 13.042 81.4681 13.042C81.0001 13.042 80.5833 13.1517 80.2177 13.371C79.8521 13.5758 79.5669 13.8683 79.3621 14.2485C79.1574 14.6288 79.055 15.0822 79.055 15.6087V22.6067H76.1812Z" fill="white"/>
<path d="M87.6495 22.6067L93.5069 6.26328H96.0516L101.909 22.6067H99.6055L98.2673 18.7677H91.2912L89.953 22.6067H87.6495ZM91.9712 16.7933H97.5872L94.4721 7.82084H95.0864L91.9712 16.7933Z" fill="white"/>
<path d="M107.576 22.87C106.465 22.87 105.463 22.5994 104.571 22.0583C103.693 21.5172 102.999 20.7786 102.487 19.8426C101.975 18.9066 101.719 17.8609 101.719 16.7055C101.719 15.5209 101.975 14.4679 102.487 13.5465C102.999 12.6105 103.693 11.872 104.571 11.3308C105.463 10.7897 106.465 10.5192 107.576 10.5192C108.556 10.5192 109.426 10.7312 110.187 11.1553C110.947 11.5648 111.547 12.1206 111.986 12.8226L111.657 13.3272V6.00003H113.719V22.6067H111.723V20.0839L111.986 20.4349C111.576 21.21 110.977 21.8097 110.187 22.2338C109.412 22.6579 108.542 22.87 107.576 22.87ZM107.752 20.8956C108.498 20.8956 109.163 20.7128 109.748 20.3472C110.333 19.9815 110.794 19.4843 111.13 18.8554C111.481 18.2119 111.657 17.4953 111.657 16.7055C111.657 15.9012 111.481 15.1845 111.13 14.5557C110.794 13.9122 110.333 13.4076 109.748 13.042C109.163 12.6763 108.498 12.4935 107.752 12.4935C107.021 12.4935 106.355 12.6837 105.756 13.0639C105.171 13.4295 104.71 13.9268 104.373 14.5557C104.037 15.1699 103.869 15.8865 103.869 16.7055C103.869 17.4953 104.037 18.2119 104.373 18.8554C104.71 19.4843 105.171 19.9815 105.756 20.3472C106.341 20.7128 107.006 20.8956 107.752 20.8956Z" fill="white"/>
<path d="M115.78 22.6067V10.7824H117.776V13.1955L117.491 12.8226C117.783 12.0767 118.251 11.5063 118.895 11.1115C119.538 10.7166 120.262 10.5192 121.067 10.5192C121.988 10.5192 122.814 10.7751 123.546 11.287C124.291 11.7988 124.803 12.4716 125.081 13.3052L124.511 13.3272C124.818 12.4058 125.337 11.7111 126.068 11.2431C126.8 10.7605 127.611 10.5192 128.503 10.5192C129.322 10.5192 130.061 10.7093 130.719 11.0895C131.392 11.4698 131.926 11.9963 132.321 12.669C132.715 13.3418 132.913 14.1023 132.913 14.9505V22.6067H130.851V15.6087C130.851 14.9505 130.734 14.3948 130.5 13.9414C130.266 13.488 129.944 13.137 129.535 12.8884C129.14 12.6252 128.672 12.4935 128.131 12.4935C127.604 12.4935 127.129 12.6252 126.705 12.8884C126.295 13.137 125.966 13.4953 125.717 13.9633C125.483 14.4167 125.366 14.9652 125.366 15.6087V22.6067H123.304V15.6087C123.304 14.9505 123.187 14.3948 122.953 13.9414C122.719 13.488 122.398 13.137 121.988 12.8884C121.593 12.6252 121.125 12.4935 120.584 12.4935C120.058 12.4935 119.582 12.6252 119.158 12.8884C118.749 13.137 118.42 13.4953 118.171 13.9633C117.937 14.4167 117.82 14.9652 117.82 15.6087V22.6067H115.78Z" fill="white"/>
<path d="M134.714 22.7735V10.9492H136.754V22.7735H134.714Z" fill="white"/>
<path d="M138.823 22.6067V10.7824H140.819V13.0858L140.49 12.8884C140.782 12.1425 141.25 11.5648 141.894 11.1553C142.552 10.7312 143.32 10.5192 144.197 10.5192C145.046 10.5192 145.799 10.7093 146.457 11.0895C147.13 11.4698 147.656 11.9963 148.036 12.669C148.431 13.3418 148.629 14.1023 148.629 14.9505V22.6067H146.567V15.6087C146.567 14.9505 146.45 14.3948 146.216 13.9414C145.982 13.488 145.645 13.137 145.207 12.8884C144.782 12.6252 144.292 12.4935 143.737 12.4935C143.181 12.4935 142.684 12.6252 142.245 12.8884C141.821 13.137 141.484 13.4953 141.236 13.9633C140.987 14.4167 140.863 14.9652 140.863 15.6087V22.6067H138.823Z" fill="white"/>
<path d="M135.673 9.50003C136.391 9.50003 136.973 8.918 136.973 8.20003C136.973 7.48206 136.391 6.90003 135.673 6.90003C134.955 6.90003 134.373 7.48206 134.373 8.20003C134.373 8.918 134.955 9.50003 135.673 9.50003Z" fill="white"/>
<path d="M0 12.1739C0 6.43507 0 3.56566 1.78283 1.78283C3.56566 0 6.43507 0 12.1739 0H15.8261C21.5649 0 24.4343 0 26.2172 1.78283C28 3.56566 28 6.43507 28 12.1739V15.8261C28 21.5649 28 24.4343 26.2172 26.2172C24.4343 28 21.5649 28 15.8261 28H12.1739C6.43507 28 3.56566 28 1.78283 26.2172C0 24.4343 0 21.5649 0 15.8261V12.1739Z" fill="url(#paint0_linear_2338_16636)"/>
<g filter="url(#filter0_dd_2338_16636)">
<path d="M22.5181 11.5653C22.5181 14.927 19.7929 17.6522 16.4312 17.6522C13.0694 17.6522 10.3442 14.927 10.3442 11.5653C10.3442 8.20356 13.0694 5.47833 16.4312 5.47833C19.7929 5.47833 22.5181 8.20356 22.5181 11.5653Z" fill="url(#paint1_linear_2338_16636)"/>
<path d="M12.17 19.4783C12.17 21.1592 10.8074 22.5218 9.12655 22.5218C7.44568 22.5218 6.08307 21.1592 6.08307 19.4783C6.08307 17.7975 7.44568 16.4349 9.12655 16.4349C10.8074 16.4349 12.17 17.7975 12.17 19.4783Z" fill="url(#paint2_linear_2338_16636)"/>
</g>
<defs>
<filter id="filter0_dd_2338_16636" x="4.08307" y="2.47833" width="20.4351" height="23.0435" filterUnits="userSpaceOnUse" color-interpolation-filters="sRGB">
<feFlood flood-opacity="0" result="BackgroundImageFix"/>
<feColorMatrix in="SourceAlpha" type="matrix" values="0 0 0 0 0 0 0 0 0 0 0 0 0 0 0 0 0 0 127 0" result="hardAlpha"/>
<feOffset dy="1"/>
<feGaussianBlur stdDeviation="1"/>
<feComposite in2="hardAlpha" operator="out"/>
<feColorMatrix type="matrix" values="0 0 0 0 0 0 0 0 0 0 0 0 0 0 0 0 0 0 0.23 0"/>
<feBlend mode="normal" in2="BackgroundImageFix" result="effect1_dropShadow_2338_16636"/>
<feColorMatrix in="SourceAlpha" type="matrix" values="0 0 0 0 0 0 0 0 0 0 0 0 0 0 0 0 0 0 127 0" result="hardAlpha"/>
<feOffset dy="-1"/>
<feGaussianBlur stdDeviation="1"/>
<feComposite in2="hardAlpha" operator="out"/>
<feColorMatrix type="matrix" values="0 0 0 0 1 0 0 0 0 1 0 0 0 0 1 0 0 0 0.35 0"/>
<feBlend mode="normal" in2="effect1_dropShadow_2338_16636" result="effect2_dropShadow_2338_16636"/>
<feBlend mode="normal" in="SourceGraphic" in2="effect2_dropShadow_2338_16636" result="shape"/>
</filter>
<linearGradient id="paint0_linear_2338_16636" x1="21.9722" y1="24.5" x2="1.50048" y2="0.137088" gradientUnits="userSpaceOnUse">
<stop stop-color="#365CF5"/>
<stop offset="1" stop-color="#946FFF"/>
</linearGradient>
<linearGradient id="paint1_linear_2338_16636" x1="16.4312" y1="5.47833" x2="16.4312" y2="26.7827" gradientUnits="userSpaceOnUse">
<stop stop-color="white"/>
<stop offset="1" stop-color="white" stop-opacity="0"/>
</linearGradient>
<linearGradient id="paint2_linear_2338_16636" x1="9.12655" y1="6.69573" x2="9.12655" y2="22.5218" gradientUnits="userSpaceOnUse">
<stop stop-color="white" stop-opacity="0"/>
<stop offset="1" stop-color="white"/>
</linearGradient>
</defs>
</svg>
