<svg fill="none" height="24" viewBox="0 0 27 24" width="27" xmlns="http://www.w3.org/2000/svg"><g fill="#262d3f"><path d="m26.1608 10.2572-5.1296-8.66671c-.513-.942018-1.5389-1.507238-2.6289-1.507238h-10.25913c-1.09003 0-2.11594.56522-2.62889 1.507238l-5.129563 8.66671c-.512956.942-.512956 2.0724 0 3.0144l5.129563 8.6667c.51295.9421 1.53886 1.5073 2.62889 1.5073h10.25913c1.09 0 2.1159-.5652 2.6289-1.5073l5.1296-8.6667c.5128-.942.5128-2.0724 0-3.0144zm-1.9877 1.884-5.1296 8.6667c-.1283.2512-.3847.3768-.7053.3768h-10.19503c-.25647 0-.57707-.1256-.70531-.3768l-5.12956-8.6667c-.12824-.2511-.12824-.5652 0-.8164l5.12956-8.66667c.12824-.2512.38471-.37681.70531-.37681h10.25913c.2565 0 .577.12561.7053.37681l5.1295 8.66667c.1283.314.1283.5653-.064.8164z"/><path d="m17.9394 6.3125h-2.0546c-1.7 0-3.0921 1.36349-3.0921 3.0286v2.1888h-2.2347c-1.70008 0-3.09218 1.3635-3.09218 3.0286v2.0124c0 .87.73259 1.5876 1.62091 1.5876h2.05467c1.7 0 3.0921-1.3634 3.0921-3.0285v-2.1889h2.2348c1.7 0 3.0921-1.3635 3.0921-3.0286v-2.0124c0-.89824-.736-1.5876-1.621-1.5876zm-5.1467 8.7926c0 .8939-.7387 1.6174-1.6513 1.6174h-2.05467c-.10095 0-.18007-.0776-.18007-.1764v-2.0125c0-.8939.73864-1.6173 1.65134-1.6173h2.2347zm5.3268-5.2174c0 .8939-.7386 1.6173-1.6512 1.6173h-2.2348v-2.1888c0-.89384.7386-1.61731 1.6513-1.61731h2.0546c.101 0 .1801.0775.1801.17637z" stroke="#fff" stroke-width=".5"/></g></svg>