<svg width="56" height="56" viewBox="0 0 56 56" fill="none" xmlns="http://www.w3.org/2000/svg">
<rect width="56" height="56" rx="4" fill="#262D3F"/>
<path d="M48.3994 25.3274L40.3887 11.793C39.5876 10.3219 37.9855 9.43927 36.2833 9.43927H20.2622C18.5599 9.43927 16.9578 10.3219 16.1568 11.793L8.14619 25.3274C7.34513 26.7985 7.34513 28.5638 8.14619 30.0348L16.1568 43.5692C16.9578 45.0404 18.5599 45.9231 20.2622 45.9231H36.2833C37.9855 45.9231 39.5876 45.0404 40.3887 43.5692L48.3994 30.0348C49.2002 28.5638 49.2002 26.7985 48.3994 25.3274ZM45.2953 28.2696L37.2847 41.8039C37.0843 42.1962 36.6839 42.3923 36.1832 42.3923H20.2622C19.8617 42.3923 19.361 42.1962 19.1607 41.8039L11.1501 28.2696C10.9499 27.8774 10.9499 27.3869 11.1501 26.9946L19.1607 13.4603C19.361 13.068 19.7615 12.8719 20.2622 12.8719H36.2833C36.6839 12.8719 37.1844 13.068 37.3848 13.4603L45.3952 26.9946C45.5956 27.485 45.5956 27.8774 45.2953 28.2696Z" fill="white"/>
<path d="M35.5604 19.1672H32.3519C29.6971 19.1672 27.5231 21.2965 27.5231 23.8968V27.3149H24.0333C21.3784 27.3149 19.2044 29.4442 19.2044 32.0445V35.1872C19.2044 36.5458 20.3484 37.6665 21.7357 37.6665H24.9444C27.5992 37.6665 29.7731 35.5373 29.7731 32.937V29.5187H33.2631C35.9179 29.5187 38.0919 27.3894 38.0919 24.7891V21.6464C38.0919 20.2437 36.9425 19.1672 35.5604 19.1672ZM27.5231 32.8981C27.5231 34.2941 26.3695 35.4239 24.9444 35.4239H21.7357C21.578 35.4239 21.4545 35.3028 21.4545 35.1485V32.0056C21.4545 30.6097 22.608 29.48 24.0333 29.48H27.5231V32.8981ZM35.8417 24.7504C35.8417 26.1463 34.6883 27.276 33.2631 27.276H29.7731V23.8579C29.7731 22.462 30.9266 21.3322 32.3519 21.3322H35.5604C35.7182 21.3322 35.8417 21.4533 35.8417 21.6077V24.7504Z" fill="white" stroke="white" stroke-width="0.5"/>
</svg>
