<svg fill="none" height="48" viewBox="0 0 48 48" width="48" xmlns="http://www.w3.org/2000/svg"><path d="m0 0h48v48h-48z" fill="#fff"/><g fill="#262d3f"><path d="m44.3914 22.0971-8.116-13.71235c-.8116-1.49047-2.4348-2.38475-4.1594-2.38475h-16.2319c-1.7247 0-3.3479.89428-4.1594 2.38475l-8.116 13.71235c-.8116 1.4905-.8116 3.279 0 4.7695l8.116 13.7123c.8115 1.4906 2.4347 2.3848 4.1594 2.3848h16.2319c1.7246 0 3.3478-.8942 4.1594-2.3848l8.116-13.7123c.8115-1.4905.8115-3.279 0-4.7695zm-3.1449 2.9809-8.116 13.7123c-.203.3975-.6087.5963-1.116.5963h-16.1304c-.4058 0-.9131-.1988-1.116-.5963l-8.11592-13.7123c-.20291-.3973-.20291-.8942 0-1.2917l8.11592-13.7123c.2029-.3975.6087-.59622 1.116-.59622h16.2319c.4058 0 .913.19872 1.116.59622l8.1158 13.7123c.203.4969.203.8944-.1013 1.2917z"/><path d="m31.3838 15.8557h-3.2508c-2.6898 0-4.8923 2.1573-4.8923 4.7919v3.4631h-3.5358c-2.6898 0-4.8924 2.1573-4.8924 4.7918v3.184c0 1.3766 1.1591 2.5119 2.5646 2.5119h3.2508c2.6898 0 4.8923-2.1572 4.8923-4.7917v-3.4633h3.5359c2.6898 0 4.8923-2.1573 4.8923-4.7917v-3.1841c0-1.4212-1.1644-2.5119-2.5646-2.5119zm-8.1431 13.9115c0 1.4145-1.1688 2.5591-2.6128 2.5591h-3.2508c-.1597 0-.2849-.1227-.2849-.279v-3.1842c0-1.4143 1.1687-2.5589 2.6127-2.5589h3.5358zm8.428-8.2548c0 1.4143-1.1687 2.5589-2.6126 2.5589h-3.5359v-3.4631c0-1.4143 1.1687-2.5589 2.6128-2.5589h3.2508c.1598 0 .2849.1226.2849.279z" stroke="#262d3f" stroke-width=".5"/></g></svg>